<svg width="392" height="16" viewBox="0 0 392 16" fill="none" xmlns="http://www.w3.org/2000/svg">
<path d="M0.409091 12H4.61364C7.36364 12 8.5 10.6591 8.5 8.90909C8.5 7.06818 7.22727 6.06818 6.15909 6V5.88636C7.15909 5.61364 8.04545 4.95455 8.04545 3.45455C8.04545 1.75 6.90909 0.363636 4.47727 0.363636H0.409091V12ZM1.81818 10.75V6.70455H4.68182C6.20455 6.70455 7.15909 7.72727 7.15909 8.90909C7.15909 9.93182 6.45455 10.75 4.61364 10.75H1.81818ZM1.81818 5.47727V1.61364H4.47727C6.02273 1.61364 6.70455 2.43182 6.70455 3.45455C6.70455 4.68182 5.70455 5.47727 4.43182 5.47727H1.81818ZM16.1335 8.43182C16.1335 10.0682 14.8835 10.8182 13.8835 10.8182C12.7699 10.8182 11.9744 10 11.9744 8.72727V3.27273H10.6335V8.81818C10.6335 11.0455 11.8153 12.1136 13.4517 12.1136C14.7699 12.1136 15.6335 11.4091 16.0426 10.5227H16.1335V12H17.4744V3.27273H16.1335V8.43182ZM19.9304 12H21.2713V3.27273H19.9304V12ZM20.6122 1.81818C21.1349 1.81818 21.5668 1.40909 21.5668 0.909091C21.5668 0.409091 21.1349 0 20.6122 0C20.0895 0 19.6577 0.409091 19.6577 0.909091C19.6577 1.40909 20.0895 1.81818 20.6122 1.81818ZM25.0682 0.363636H23.7273V12H25.0682V0.363636ZM31.3196 3.27273H29.456V1.18182H28.1151V3.27273H26.7969V4.40909H28.1151V9.86364C28.1151 11.3864 29.3423 12.1136 30.4787 12.1136C30.9787 12.1136 31.2969 12.0227 31.4787 11.9545L31.206 10.75C31.0923 10.7727 30.9105 10.8182 30.6151 10.8182C30.0241 10.8182 29.456 10.6364 29.456 9.5V4.40909H31.3196V3.27273ZM38.0185 12H39.3139V10.6591H39.473C39.7685 11.1364 40.3366 12.1818 42.0185 12.1818C44.2003 12.1818 45.723 10.4318 45.723 7.65909C45.723 4.90909 44.2003 3.15909 41.9957 3.15909C40.2912 3.15909 39.7685 4.20455 39.473 4.65909H39.3594V0.363636H38.0185V12ZM39.3366 7.63636C39.3366 5.68182 40.2003 4.36364 41.8366 4.36364C43.5412 4.36364 44.3821 5.79545 44.3821 7.63636C44.3821 9.5 43.5185 10.9773 41.8366 10.9773C40.223 10.9773 39.3366 9.61364 39.3366 7.63636ZM48.3253 15.2727C49.5355 15.2727 50.3878 14.6307 50.8935 13.2727L54.6094 3.29545L53.1435 3.27273L50.7344 10.2273H50.6435L48.2344 3.27273H46.7798L50.0071 12.0455L49.7571 12.7273C49.2685 14.0568 48.6662 14.1818 47.6889 13.9318L47.348 15.1136C47.4844 15.1818 47.8707 15.2727 48.3253 15.2727ZM65.5199 0.363636V8.68182C65.5199 10.1307 64.8267 10.9091 63.6108 10.9091C62.5028 10.9091 61.7017 10.2614 61.7017 9.27273H60.3153C60.3153 11.0625 61.7017 12.1591 63.6108 12.1591C65.6335 12.1591 66.929 10.9148 66.929 8.68182V0.363636H65.5199ZM73.2301 12.1818C75.0028 12.1818 76.2983 11.2955 76.7074 9.97727L75.4119 9.61364C75.071 10.5227 74.2812 10.9773 73.2301 10.9773C71.6562 10.9773 70.571 9.96023 70.5085 8.09091H76.8438V7.52273C76.8438 4.27273 74.9119 3.15909 73.0938 3.15909C70.7301 3.15909 69.1619 5.02273 69.1619 7.70455C69.1619 10.3864 70.7074 12.1818 73.2301 12.1818ZM70.5085 6.93182C70.5994 5.57386 71.5597 4.36364 73.0938 4.36364C74.5483 4.36364 75.4801 5.45455 75.4801 6.93182H70.5085ZM78.8835 12H80.2244V6.47727C80.2244 5.29545 81.1562 4.43182 82.429 4.43182C82.7869 4.43182 83.1562 4.5 83.2472 4.52273V3.15909C83.0938 3.14773 82.7415 3.13636 82.5426 3.13636C81.4972 3.13636 80.5881 3.72727 80.2699 4.59091H80.179V3.27273H78.8835V12ZM88.2301 12.1818C90.0028 12.1818 91.2983 11.2955 91.7074 9.97727L90.4119 9.61364C90.071 10.5227 89.2812 10.9773 88.2301 10.9773C86.6562 10.9773 85.571 9.96023 85.5085 8.09091H91.8438V7.52273C91.8438 4.27273 89.9119 3.15909 88.0938 3.15909C85.7301 3.15909 84.1619 5.02273 84.1619 7.70455C84.1619 10.3864 85.7074 12.1818 88.2301 12.1818ZM85.5085 6.93182C85.5994 5.57386 86.5597 4.36364 88.0938 4.36364C89.5483 4.36364 90.4801 5.45455 90.4801 6.93182H85.5085ZM93.8835 12H95.2244V6.54545C95.2244 5.26705 96.1562 4.36364 97.2017 4.36364C98.2188 4.36364 98.929 5.02841 98.929 6.02273V12H100.293V6.31818C100.293 5.19318 100.997 4.36364 102.224 4.36364C103.179 4.36364 103.997 4.86932 103.997 6.15909V12H105.338V6.15909C105.338 4.10795 104.236 3.15909 102.679 3.15909C101.429 3.15909 100.514 3.73295 100.065 4.63636H99.9744C99.5426 3.70455 98.7812 3.15909 97.6335 3.15909C96.4972 3.15909 95.6562 3.70455 95.2926 4.63636H95.179V3.27273H93.8835V12ZM107.79 12H109.131V3.27273H107.79V12ZM108.472 1.81818C108.994 1.81818 109.426 1.40909 109.426 0.909091C109.426 0.409091 108.994 0 108.472 0C107.949 0 107.517 0.409091 107.517 0.909091C107.517 1.40909 107.949 1.81818 108.472 1.81818ZM114.155 12.2045C115.678 12.2045 116.473 11.3864 116.746 10.8182H116.814V12H118.155V6.25C118.155 3.47727 116.041 3.15909 114.928 3.15909C113.609 3.15909 112.109 3.61364 111.428 5.20455L112.7 5.65909C112.996 5.02273 113.695 4.34091 114.973 4.34091C116.206 4.34091 116.814 4.99432 116.814 6.11364V6.15909C116.814 6.80682 116.155 6.75 114.564 6.95455C112.945 7.16477 111.178 7.52273 111.178 9.52273C111.178 11.2273 112.496 12.2045 114.155 12.2045ZM114.359 11C113.291 11 112.518 10.5227 112.518 9.59091C112.518 8.56818 113.45 8.25 114.496 8.11364C115.064 8.04545 116.587 7.88636 116.814 7.61364V8.84091C116.814 9.93182 115.95 11 114.359 11ZM121.943 6.75C121.943 5.22727 122.915 4.36364 124.239 4.36364C125.5 4.36364 126.261 5.15909 126.261 6.54545V12H127.602V6.45455C127.602 4.21023 126.409 3.15909 124.625 3.15909C123.25 3.15909 122.466 3.73295 122.057 4.63636H121.943V0.363636H120.602V12H121.943V6.75ZM136.533 12H137.851L139.76 5.29545H139.896L141.805 12H143.124L145.783 3.27273H144.374L142.487 9.93182H142.396L140.555 3.27273H139.124L137.26 9.95455H137.169L135.283 3.27273H133.874L136.533 12ZM147.555 12H148.896V3.27273H147.555V12ZM148.237 1.81818C148.76 1.81818 149.192 1.40909 149.192 0.909091C149.192 0.409091 148.76 0 148.237 0C147.714 0 147.283 0.409091 147.283 0.909091C147.283 1.40909 147.714 1.81818 148.237 1.81818ZM155.148 3.27273H153.284V1.18182H151.943V3.27273H150.625V4.40909H151.943V9.86364C151.943 11.3864 153.17 12.1136 154.307 12.1136C154.807 12.1136 155.125 12.0227 155.307 11.9545L155.034 10.75C154.92 10.7727 154.739 10.8182 154.443 10.8182C153.852 10.8182 153.284 10.6364 153.284 9.5V4.40909H155.148V3.27273ZM158.693 6.75C158.693 5.22727 159.665 4.36364 160.989 4.36364C162.25 4.36364 163.011 5.15909 163.011 6.54545V12H164.352V6.45455C164.352 4.21023 163.159 3.15909 161.375 3.15909C160 3.15909 159.216 3.73295 158.807 4.63636H158.693V0.363636H157.352V12H158.693V6.75ZM206.743 12H208.084V3.27273H206.743V12ZM207.425 1.81818C207.947 1.81818 208.379 1.40909 208.379 0.909091C208.379 0.409091 207.947 0 207.425 0C206.902 0 206.47 0.409091 206.47 0.909091C206.47 1.40909 206.902 1.81818 207.425 1.81818ZM211.881 6.75C211.881 5.22727 212.824 4.36364 214.108 4.36364C215.352 4.36364 216.108 5.17614 216.108 6.54545V12H217.449V6.45455C217.449 4.22727 216.261 3.15909 214.494 3.15909C213.176 3.15909 212.358 3.75 211.949 4.63636H211.835V3.27273H210.54V12H211.881V6.75ZM224.581 12H231.399V10.75H225.99V0.363636H224.581V12ZM235.967 12.2045C237.49 12.2045 238.286 11.3864 238.558 10.8182H238.626V12H239.967V6.25C239.967 3.47727 237.854 3.15909 236.74 3.15909C235.422 3.15909 233.922 3.61364 233.24 5.20455L234.513 5.65909C234.808 5.02273 235.507 4.34091 236.786 4.34091C238.018 4.34091 238.626 4.99432 238.626 6.11364V6.15909C238.626 6.80682 237.967 6.75 236.376 6.95455C234.757 7.16477 232.99 7.52273 232.99 9.52273C232.99 11.2273 234.308 12.2045 235.967 12.2045ZM236.172 11C235.104 11 234.331 10.5227 234.331 9.59091C234.331 8.56818 235.263 8.25 236.308 8.11364C236.876 8.04545 238.399 7.88636 238.626 7.61364V8.84091C238.626 9.93182 237.763 11 236.172 11ZM245.938 15.4545C248.028 15.4545 249.71 14.5 249.71 12.25V3.27273H248.415V4.65909H248.278C247.983 4.20455 247.438 3.15909 245.733 3.15909C243.528 3.15909 242.006 4.90909 242.006 7.59091C242.006 10.3182 243.597 11.8636 245.71 11.8636C247.415 11.8636 247.96 10.8636 248.256 10.3864H248.369V12.1591C248.369 13.6136 247.347 14.2727 245.938 14.2727C244.352 14.2727 243.795 13.4375 243.438 12.9545L242.369 13.7045C242.915 14.6193 243.989 15.4545 245.938 15.4545ZM245.892 10.6591C244.21 10.6591 243.347 9.38636 243.347 7.56818C243.347 5.79545 244.188 4.36364 245.892 4.36364C247.528 4.36364 248.392 5.68182 248.392 7.56818C248.392 9.5 247.506 10.6591 245.892 10.6591ZM255.71 12.1818C258.074 12.1818 259.665 10.3864 259.665 7.68182C259.665 4.95455 258.074 3.15909 255.71 3.15909C253.347 3.15909 251.756 4.95455 251.756 7.68182C251.756 10.3864 253.347 12.1818 255.71 12.1818ZM255.71 10.9773C253.915 10.9773 253.097 9.43182 253.097 7.68182C253.097 5.93182 253.915 4.36364 255.71 4.36364C257.506 4.36364 258.324 5.93182 258.324 7.68182C258.324 9.43182 257.506 10.9773 255.71 10.9773ZM267.893 5.22727C267.473 3.98864 266.53 3.15909 264.803 3.15909C262.962 3.15909 261.598 4.20455 261.598 5.68182C261.598 6.88636 262.314 7.69318 263.916 8.06818L265.371 8.40909C266.251 8.61364 266.666 9.03409 266.666 9.63636C266.666 10.3864 265.871 11 264.621 11C263.524 11 262.837 10.5284 262.598 9.59091L261.325 9.90909C261.638 11.392 262.859 12.1818 264.643 12.1818C266.672 12.1818 268.053 11.0739 268.053 9.56818C268.053 8.35227 267.291 7.58523 265.734 7.20455L264.439 6.88636C263.405 6.63068 262.939 6.28409 262.939 5.61364C262.939 4.86364 263.734 4.31818 264.803 4.31818C265.973 4.31818 266.456 4.96591 266.689 5.56818L267.893 5.22727ZM271.048 12.0909C271.611 12.0909 272.071 11.6307 272.071 11.0682C272.071 10.5057 271.611 10.0455 271.048 10.0455C270.486 10.0455 270.026 10.5057 270.026 11.0682C270.026 11.6307 270.486 12.0909 271.048 12.0909ZM288.523 4C288.091 1.61364 286.182 0.204545 283.841 0.204545C280.864 0.204545 278.705 2.5 278.705 6.18182C278.705 9.86364 280.864 12.1591 283.841 12.1591C286.182 12.1591 288.091 10.75 288.523 8.36364H287.114C286.773 9.97727 285.386 10.8409 283.841 10.8409C281.727 10.8409 280.068 9.20455 280.068 6.18182C280.068 3.15909 281.727 1.52273 283.841 1.52273C285.386 1.52273 286.773 2.38636 287.114 4H288.523ZM294.163 12.1818C296.527 12.1818 298.118 10.3864 298.118 7.68182C298.118 4.95455 296.527 3.15909 294.163 3.15909C291.8 3.15909 290.209 4.95455 290.209 7.68182C290.209 10.3864 291.8 12.1818 294.163 12.1818ZM294.163 10.9773C292.368 10.9773 291.55 9.43182 291.55 7.68182C291.55 5.93182 292.368 4.36364 294.163 4.36364C295.959 4.36364 296.777 5.93182 296.777 7.68182C296.777 9.43182 295.959 10.9773 294.163 10.9773ZM300.165 15.2727H301.506V10.6591H301.619C301.915 11.1364 302.483 12.1818 304.165 12.1818C306.347 12.1818 307.869 10.4318 307.869 7.65909C307.869 4.90909 306.347 3.15909 304.142 3.15909C302.438 3.15909 301.915 4.20455 301.619 4.65909H301.46V3.27273H300.165V15.2727ZM301.483 7.63636C301.483 5.68182 302.347 4.36364 303.983 4.36364C305.688 4.36364 306.528 5.79545 306.528 7.63636C306.528 9.5 305.665 10.9773 303.983 10.9773C302.369 10.9773 301.483 9.61364 301.483 7.63636ZM310.466 15.2727C311.676 15.2727 312.528 14.6307 313.034 13.2727L316.75 3.29545L315.284 3.27273L312.875 10.2273H312.784L310.375 3.27273H308.92L312.148 12.0455L311.898 12.7273C311.409 14.0568 310.807 14.1818 309.83 13.9318L309.489 15.1136C309.625 15.1818 310.011 15.2727 310.466 15.2727ZM318.524 12H319.865V6.47727C319.865 5.29545 320.797 4.43182 322.07 4.43182C322.428 4.43182 322.797 4.5 322.888 4.52273V3.15909C322.734 3.14773 322.382 3.13636 322.183 3.13636C321.138 3.13636 320.229 3.72727 319.911 4.59091H319.82V3.27273H318.524V12ZM324.477 12H325.818V3.27273H324.477V12ZM325.159 1.81818C325.682 1.81818 326.114 1.40909 326.114 0.909091C326.114 0.409091 325.682 0 325.159 0C324.636 0 324.205 0.409091 324.205 0.909091C324.205 1.40909 324.636 1.81818 325.159 1.81818ZM331.797 15.4545C333.888 15.4545 335.57 14.5 335.57 12.25V3.27273H334.274V4.65909H334.138C333.842 4.20455 333.297 3.15909 331.592 3.15909C329.388 3.15909 327.865 4.90909 327.865 7.59091C327.865 10.3182 329.456 11.8636 331.57 11.8636C333.274 11.8636 333.82 10.8636 334.115 10.3864H334.229V12.1591C334.229 13.6136 333.206 14.2727 331.797 14.2727C330.212 14.2727 329.655 13.4375 329.297 12.9545L328.229 13.7045C328.774 14.6193 329.848 15.4545 331.797 15.4545ZM331.751 10.6591C330.07 10.6591 329.206 9.38636 329.206 7.56818C329.206 5.79545 330.047 4.36364 331.751 4.36364C333.388 4.36364 334.251 5.68182 334.251 7.56818C334.251 9.5 333.365 10.6591 331.751 10.6591ZM339.365 6.75C339.365 5.22727 340.337 4.36364 341.661 4.36364C342.922 4.36364 343.683 5.15909 343.683 6.54545V12H345.024V6.45455C345.024 4.21023 343.831 3.15909 342.047 3.15909C340.672 3.15909 339.888 3.73295 339.479 4.63636H339.365V0.363636H338.024V12H339.365V6.75ZM351.273 3.27273H349.409V1.18182H348.068V3.27273H346.75V4.40909H348.068V9.86364C348.068 11.3864 349.295 12.1136 350.432 12.1136C350.932 12.1136 351.25 12.0227 351.432 11.9545L351.159 10.75C351.045 10.7727 350.864 10.8182 350.568 10.8182C349.977 10.8182 349.409 10.6364 349.409 9.5V4.40909H351.273V3.27273ZM357.767 12H365.108V10.75H359.699V10.6591L362.312 7.86364C364.312 5.72159 364.903 4.72159 364.903 3.43182C364.903 1.63636 363.449 0.204545 361.403 0.204545C359.364 0.204545 357.812 1.59091 357.812 3.63636H359.153C359.153 2.3125 360.011 1.43182 361.358 1.43182C362.619 1.43182 363.585 2.20455 363.585 3.43182C363.585 4.50568 362.955 5.30114 361.608 6.77273L357.767 10.9773V12ZM371.25 12.1591C373.818 12.1591 375.295 9.98295 375.295 6.18182C375.295 2.40909 373.795 0.204545 371.25 0.204545C368.705 0.204545 367.205 2.40909 367.205 6.18182C367.205 9.98295 368.682 12.1591 371.25 12.1591ZM371.25 10.9091C369.557 10.9091 368.568 9.21023 368.568 6.18182C368.568 3.15909 369.568 1.43182 371.25 1.43182C372.932 1.43182 373.932 3.15909 373.932 6.18182C373.932 9.21023 372.943 10.9091 371.25 10.9091ZM377.455 12H384.795V10.75H379.386V10.6591L382 7.86364C384 5.72159 384.591 4.72159 384.591 3.43182C384.591 1.63636 383.136 0.204545 381.091 0.204545C379.051 0.204545 377.5 1.59091 377.5 3.63636H378.841C378.841 2.3125 379.699 1.43182 381.045 1.43182C382.307 1.43182 383.273 2.20455 383.273 3.43182C383.273 4.50568 382.642 5.30114 381.295 6.77273L377.455 10.9773V12ZM391.233 0.363636H389.824L386.915 2.29545V3.72727L389.756 1.84091H389.824V12H391.233V0.363636Z" fill="white"/>
</svg>
