<svg width="560" height="114" viewBox="0 0 560 114" fill="none" xmlns="http://www.w3.org/2000/svg">
<path d="M0.869318 2.31534H4.9858V14H6.57102V2.31534H10.6875V0.909091H0.869318V2.31534ZM11.91 14H13.4185V7.78693C13.4185 6.46378 14.4668 5.4858 15.8986 5.4858C16.2757 5.4858 16.557 5.55611 16.7679 5.66477L17.2793 4.38636C16.9725 4.16903 16.5698 4.02841 16.0265 4.02841C14.8375 4.02841 13.8212 4.69318 13.4696 5.66477H13.3674V4.18182H11.91V14ZM25.0057 9.9858C25.0057 11.8267 23.5994 12.6705 22.4744 12.6705C21.2216 12.6705 20.3267 11.75 20.3267 10.3182V4.18182H18.8182V10.4205C18.8182 12.9261 20.1477 14.1278 21.9886 14.1278C23.4716 14.1278 24.4432 13.3352 24.9034 12.3381H25.0057V14H26.5142V4.18182H25.0057V9.9858ZM33.3936 14.2045C35.388 14.2045 36.8453 13.2074 37.3056 11.7244L35.8482 11.3153C35.4647 12.3381 34.5762 12.8494 33.3936 12.8494C31.623 12.8494 30.4022 11.7053 30.3319 9.60227H37.459V8.96307C37.459 5.30682 35.2857 4.05398 33.2402 4.05398C30.5811 4.05398 28.8169 6.15057 28.8169 9.16761C28.8169 12.1847 30.5556 14.2045 33.3936 14.2045ZM30.3319 8.2983C30.4341 6.7706 31.5144 5.40909 33.2402 5.40909C34.8766 5.40909 35.9249 6.63636 35.9249 8.2983H30.3319ZM55.5549 5C55.0691 2.31534 52.9213 0.730113 50.2878 0.730113C46.9384 0.730113 44.5094 3.3125 44.5094 7.45455C44.5094 11.5966 46.9384 14.179 50.2878 14.179C52.9213 14.179 55.0691 12.5938 55.5549 9.90909H53.9696C53.5861 11.7244 52.0265 12.696 50.2878 12.696C47.91 12.696 46.0435 10.8551 46.0435 7.45455C46.0435 4.05398 47.91 2.21307 50.2878 2.21307C52.0265 2.21307 53.5861 3.18466 53.9696 5H55.5549ZM57.9119 0.909091V11.8523C57.9119 13.2521 58.6278 14.0767 60.0597 14.0767C60.4943 14.0767 60.9226 14 61.1847 13.9233L60.8778 12.6193C60.7308 12.6641 60.5966 12.7088 60.2386 12.7216C59.5739 12.7408 59.4205 12.3956 59.4205 11.4432V0.909091H57.9119ZM66.5588 14.2045C69.2179 14.2045 71.0076 12.1847 71.0076 9.14205C71.0076 6.07386 69.2179 4.05398 66.5588 4.05398C63.8997 4.05398 62.1099 6.07386 62.1099 9.14205C62.1099 12.1847 63.8997 14.2045 66.5588 14.2045ZM66.5588 12.8494C64.5389 12.8494 63.6184 11.1108 63.6184 9.14205C63.6184 7.1733 64.5389 5.40909 66.5588 5.40909C68.5787 5.40909 69.4991 7.1733 69.4991 9.14205C69.4991 11.1108 68.5787 12.8494 66.5588 12.8494ZM79.4979 9.9858C79.4979 11.8267 78.0916 12.6705 76.9666 12.6705C75.7138 12.6705 74.8189 11.75 74.8189 10.3182V4.18182H73.3104V10.4205C73.3104 12.9261 74.6399 14.1278 76.4808 14.1278C77.9638 14.1278 78.9354 13.3352 79.3956 12.3381H79.4979V14H81.0064V4.18182H79.4979V9.9858ZM87.4767 14.2045C89.3688 14.2045 90.008 13.0284 90.3404 12.4915H90.5194V14H91.9767V0.909091H90.4682V5.74148H90.3404C90.008 5.23011 89.4199 4.05398 87.5023 4.05398C85.0222 4.05398 83.3091 6.02273 83.3091 9.11648C83.3091 12.2358 85.0222 14.2045 87.4767 14.2045ZM87.6813 12.8494C85.7892 12.8494 84.8176 11.1875 84.8176 9.09091C84.8176 7.01989 85.7637 5.40909 87.6813 5.40909C89.5222 5.40909 90.4938 6.89205 90.4938 9.09091C90.4938 11.3153 89.4966 12.8494 87.6813 12.8494ZM102.594 14H104.23L107.119 3.56818H107.222L110.111 14H111.747L115.327 0.909091H113.716L110.98 11.571H110.852L108.066 0.909091H106.276L103.489 11.571H103.361L100.625 0.909091H99.0144L102.594 14ZM120.3 14.2045C122.294 14.2045 123.752 13.2074 124.212 11.7244L122.754 11.3153C122.371 12.3381 121.482 12.8494 120.3 12.8494C118.529 12.8494 117.308 11.7053 117.238 9.60227H124.365V8.96307C124.365 5.30682 122.192 4.05398 120.146 4.05398C117.487 4.05398 115.723 6.15057 115.723 9.16761C115.723 12.1847 117.462 14.2045 120.3 14.2045ZM117.238 8.2983C117.34 6.7706 118.421 5.40909 120.146 5.40909C121.783 5.40909 122.831 6.63636 122.831 8.2983H117.238ZM126.865 14H128.322V12.4915H128.501C128.833 13.0284 129.472 14.2045 131.365 14.2045C133.819 14.2045 135.532 12.2358 135.532 9.11648C135.532 6.02273 133.819 4.05398 131.339 4.05398C129.421 4.05398 128.833 5.23011 128.501 5.74148H128.373V0.909091H126.865V14ZM128.347 9.09091C128.347 6.89205 129.319 5.40909 131.16 5.40909C133.078 5.40909 134.024 7.01989 134.024 9.09091C134.024 11.1875 133.052 12.8494 131.16 12.8494C129.345 12.8494 128.347 11.3153 128.347 9.09091ZM143.107 14H144.692V8.14489H151.672V14H153.257V0.909091H151.672V6.73864H144.692V0.909091H143.107V14ZM160.215 14.2045C162.874 14.2045 164.664 12.1847 164.664 9.14205C164.664 6.07386 162.874 4.05398 160.215 4.05398C157.556 4.05398 155.766 6.07386 155.766 9.14205C155.766 12.1847 157.556 14.2045 160.215 14.2045ZM160.215 12.8494C158.195 12.8494 157.275 11.1108 157.275 9.14205C157.275 7.1733 158.195 5.40909 160.215 5.40909C162.235 5.40909 163.155 7.1733 163.155 9.14205C163.155 11.1108 162.235 12.8494 160.215 12.8494ZM173.921 6.38068C173.448 4.98722 172.387 4.05398 170.444 4.05398C168.373 4.05398 166.839 5.23011 166.839 6.89205C166.839 8.24716 167.644 9.15483 169.447 9.5767L171.083 9.96023C172.074 10.1903 172.54 10.6634 172.54 11.3409C172.54 12.1847 171.646 12.875 170.239 12.875C169.006 12.875 168.232 12.3445 167.964 11.2898L166.532 11.6477C166.884 13.3161 168.258 14.2045 170.265 14.2045C172.547 14.2045 174.1 12.9581 174.1 11.2642C174.1 9.89631 173.244 9.03338 171.492 8.60511L170.035 8.24716C168.871 7.95952 168.347 7.5696 168.347 6.81534C168.347 5.97159 169.242 5.35795 170.444 5.35795C171.761 5.35795 172.304 6.08665 172.566 6.7642L173.921 6.38068ZM180.641 4.18182H178.544V1.82955H177.036V4.18182H175.553V5.46023H177.036V11.5966C177.036 13.3097 178.416 14.1278 179.695 14.1278C180.257 14.1278 180.615 14.0256 180.82 13.9489L180.513 12.5938C180.385 12.6193 180.181 12.6705 179.848 12.6705C179.183 12.6705 178.544 12.4659 178.544 11.1875V5.46023H180.641V4.18182ZM182.91 14H184.419V4.18182H182.91V14ZM183.677 2.54545C184.265 2.54545 184.751 2.08523 184.751 1.52273C184.751 0.960227 184.265 0.5 183.677 0.5C183.089 0.5 182.603 0.960227 182.603 1.52273C182.603 2.08523 183.089 2.54545 183.677 2.54545ZM188.69 8.09375C188.69 6.38068 189.751 5.40909 191.196 5.40909C192.596 5.40909 193.446 6.32315 193.446 7.86364V14H194.954V7.76136C194.954 5.25568 193.618 4.05398 191.63 4.05398C190.147 4.05398 189.227 4.71875 188.767 5.71591H188.639V4.18182H187.181V14H188.69V8.09375ZM201.674 17.8864C204.026 17.8864 205.918 16.8125 205.918 14.2812V4.18182H204.461V5.74148H204.307C203.975 5.23011 203.361 4.05398 201.444 4.05398C198.964 4.05398 197.251 6.02273 197.251 9.03977C197.251 12.108 199.04 13.8466 201.418 13.8466C203.336 13.8466 203.949 12.7216 204.282 12.1847H204.41V14.179C204.41 15.8153 203.259 16.5568 201.674 16.5568C199.89 16.5568 199.264 15.6172 198.861 15.0739L197.66 15.9176C198.273 16.9467 199.481 17.8864 201.674 17.8864ZM201.623 12.4915C199.731 12.4915 198.759 11.0597 198.759 9.0142C198.759 7.01989 199.705 5.40909 201.623 5.40909C203.464 5.40909 204.435 6.89205 204.435 9.0142C204.435 11.1875 203.438 12.4915 201.623 12.4915ZM214.483 14L215.8 10.2926H221.093L222.41 14H224.072L219.265 0.909091H217.628L212.822 14H214.483ZM216.299 8.88636L218.395 2.98011H218.498L220.594 8.88636H216.299ZM225.906 0.909091V11.8523C225.906 13.2521 226.622 14.0767 228.054 14.0767C228.488 14.0767 228.917 14 229.179 13.9233L228.872 12.6193C228.725 12.6641 228.591 12.7088 228.233 12.7216C227.568 12.7408 227.415 12.3956 227.415 11.4432V0.909091H225.906ZM230.828 0.909091V11.8523C230.828 13.2521 231.544 14.0767 232.976 14.0767C233.41 14.0767 233.839 14 234.101 13.9233L233.794 12.6193C233.647 12.6641 233.513 12.7088 233.155 12.7216C232.49 12.7408 232.336 12.3956 232.336 11.4432V0.909091H230.828ZM244.537 14.2045C247.196 14.2045 248.986 12.1847 248.986 9.14205C248.986 6.07386 247.196 4.05398 244.537 4.05398C241.878 4.05398 240.088 6.07386 240.088 9.14205C240.088 12.1847 241.878 14.2045 244.537 14.2045ZM244.537 12.8494C242.517 12.8494 241.597 11.1108 241.597 9.14205C241.597 7.1733 242.517 5.40909 244.537 5.40909C246.557 5.40909 247.478 7.1733 247.478 9.14205C247.478 11.1108 246.557 12.8494 244.537 12.8494ZM255.661 4.18182H253.462V3.18466C253.462 2.21307 253.871 1.7017 254.868 1.7017C255.303 1.7017 255.559 1.80398 255.712 1.85511L256.147 0.551136C255.917 0.448863 255.456 0.295454 254.715 0.295454C253.309 0.295454 251.954 1.1392 251.954 2.8267V4.18182H250.368V5.46023H251.954V14H253.462V5.46023H255.661V4.18182ZM267.108 4.18182H265.011V1.82955H263.502V4.18182H262.02V5.46023H263.502V11.5966C263.502 13.3097 264.883 14.1278 266.162 14.1278C266.724 14.1278 267.082 14.0256 267.287 13.9489L266.98 12.5938C266.852 12.6193 266.647 12.6705 266.315 12.6705C265.65 12.6705 265.011 12.4659 265.011 11.1875V5.46023H267.108V4.18182ZM271.096 8.09375C271.096 6.38068 272.189 5.40909 273.679 5.40909C275.098 5.40909 275.954 6.30398 275.954 7.86364V14H277.463V7.76136C277.463 5.23651 276.12 4.05398 274.113 4.05398C272.566 4.05398 271.684 4.69957 271.224 5.71591H271.096V0.909091H269.588V14H271.096V8.09375ZM284.339 14.2045C286.333 14.2045 287.791 13.2074 288.251 11.7244L286.794 11.3153C286.41 12.3381 285.521 12.8494 284.339 12.8494C282.568 12.8494 281.347 11.7053 281.277 9.60227H288.404V8.96307C288.404 5.30682 286.231 4.05398 284.186 4.05398C281.526 4.05398 279.762 6.15057 279.762 9.16761C279.762 12.1847 281.501 14.2045 284.339 14.2045ZM281.277 8.2983C281.379 6.7706 282.46 5.40909 284.186 5.40909C285.822 5.40909 286.87 6.63636 286.87 8.2983H281.277ZM297.27 8.09375C297.27 6.38068 298.363 5.40909 299.852 5.40909C301.271 5.40909 302.128 6.30398 302.128 7.86364V14H303.637V7.76136C303.637 5.23651 302.294 4.05398 300.287 4.05398C298.74 4.05398 297.858 4.69957 297.398 5.71591H297.27V0.909091H295.762V14H297.27V8.09375ZM310.385 14.2045C313.044 14.2045 314.834 12.1847 314.834 9.14205C314.834 6.07386 313.044 4.05398 310.385 4.05398C307.726 4.05398 305.936 6.07386 305.936 9.14205C305.936 12.1847 307.726 14.2045 310.385 14.2045ZM310.385 12.8494C308.365 12.8494 307.445 11.1108 307.445 9.14205C307.445 7.1733 308.365 5.40909 310.385 5.40909C312.405 5.40909 313.325 7.1733 313.325 9.14205C313.325 11.1108 312.405 12.8494 310.385 12.8494ZM324.091 6.38068C323.618 4.98722 322.557 4.05398 320.614 4.05398C318.543 4.05398 317.009 5.23011 317.009 6.89205C317.009 8.24716 317.814 9.15483 319.617 9.5767L321.253 9.96023C322.244 10.1903 322.71 10.6634 322.71 11.3409C322.71 12.1847 321.816 12.875 320.409 12.875C319.176 12.875 318.402 12.3445 318.134 11.2898L316.702 11.6477C317.053 13.3161 318.428 14.2045 320.435 14.2045C322.717 14.2045 324.27 12.9581 324.27 11.2642C324.27 9.89631 323.414 9.03338 321.662 8.60511L320.205 8.24716C319.041 7.95952 318.517 7.5696 318.517 6.81534C318.517 5.97159 319.412 5.35795 320.614 5.35795C321.931 5.35795 322.474 6.08665 322.736 6.7642L324.091 6.38068ZM330.811 4.18182H328.714V1.82955H327.206V4.18182H325.723V5.46023H327.206V11.5966C327.206 13.3097 328.586 14.1278 329.865 14.1278C330.427 14.1278 330.785 14.0256 330.99 13.9489L330.683 12.5938C330.555 12.6193 330.35 12.6705 330.018 12.6705C329.353 12.6705 328.714 12.4659 328.714 11.1875V5.46023H330.811V4.18182ZM333.08 14H334.588V4.18182H333.08V14ZM333.847 2.54545C334.435 2.54545 334.921 2.08523 334.921 1.52273C334.921 0.960227 334.435 0.5 333.847 0.5C333.259 0.5 332.773 0.960227 332.773 1.52273C332.773 2.08523 333.259 2.54545 333.847 2.54545ZM338.86 8.09375C338.86 6.38068 339.921 5.40909 341.366 5.40909C342.765 5.40909 343.616 6.32315 343.616 7.86364V14H345.124V7.76136C345.124 5.25568 343.788 4.05398 341.8 4.05398C340.317 4.05398 339.397 4.71875 338.937 5.71591H338.809V4.18182H337.351V14H338.86V8.09375ZM351.844 17.8864C354.196 17.8864 356.088 16.8125 356.088 14.2812V4.18182H354.631V5.74148H354.477C354.145 5.23011 353.531 4.05398 351.614 4.05398C349.134 4.05398 347.42 6.02273 347.42 9.03977C347.42 12.108 349.21 13.8466 351.588 13.8466C353.506 13.8466 354.119 12.7216 354.452 12.1847H354.58V14.179C354.58 15.8153 353.429 16.5568 351.844 16.5568C350.06 16.5568 349.434 15.6172 349.031 15.0739L347.83 15.9176C348.443 16.9467 349.651 17.8864 351.844 17.8864ZM351.793 12.4915C349.901 12.4915 348.929 11.0597 348.929 9.0142C348.929 7.01989 349.875 5.40909 351.793 5.40909C353.634 5.40909 354.605 6.89205 354.605 9.0142C354.605 11.1875 353.608 12.4915 351.793 12.4915ZM363.912 17.6818H365.42V12.4915H365.548C365.881 13.0284 366.52 14.2045 368.412 14.2045C370.866 14.2045 372.58 12.2358 372.58 9.11648C372.58 6.02273 370.866 4.05398 368.386 4.05398C366.469 4.05398 365.881 5.23011 365.548 5.74148H365.369V4.18182H363.912V17.6818ZM365.395 9.09091C365.395 6.89205 366.366 5.40909 368.207 5.40909C370.125 5.40909 371.071 7.01989 371.071 9.09091C371.071 11.1875 370.099 12.8494 368.207 12.8494C366.392 12.8494 365.395 11.3153 365.395 9.09091ZM378.588 14.2045C380.48 14.2045 381.119 13.0284 381.452 12.4915H381.631V14H383.088V4.18182H381.58V5.74148H381.452C381.119 5.23011 380.531 4.05398 378.614 4.05398C376.134 4.05398 374.42 6.02273 374.42 9.11648C374.42 12.2358 376.134 14.2045 378.588 14.2045ZM378.793 12.8494C376.901 12.8494 375.929 11.1875 375.929 9.09091C375.929 7.01989 376.875 5.40909 378.793 5.40909C380.634 5.40909 381.605 6.89205 381.605 9.09091C381.605 11.3153 380.608 12.8494 378.793 12.8494ZM390.049 14.2045C392.222 14.2045 393.654 12.875 393.91 11.1364H392.401C392.12 12.2102 391.225 12.8494 390.049 12.8494C388.259 12.8494 387.109 11.3665 387.109 9.09091C387.109 6.86648 388.285 5.40909 390.049 5.40909C391.379 5.40909 392.171 6.22727 392.401 7.12216H393.91C393.654 5.28125 392.094 4.05398 390.023 4.05398C387.364 4.05398 385.6 6.15057 385.6 9.14205C385.6 12.0824 387.288 14.2045 390.049 14.2045ZM396.115 14H397.624V10.3246L398.678 9.34659L402.354 14H404.271L399.816 8.375L403.964 4.18182H402.098L397.803 8.55398H397.624V0.909091H396.115V14ZM409.209 14.2045C411.101 14.2045 411.74 13.0284 412.073 12.4915H412.252V14H413.709V4.18182H412.201V5.74148H412.073C411.74 5.23011 411.152 4.05398 409.235 4.05398C406.755 4.05398 405.042 6.02273 405.042 9.11648C405.042 12.2358 406.755 14.2045 409.209 14.2045ZM409.414 12.8494C407.522 12.8494 406.55 11.1875 406.55 9.09091C406.55 7.01989 407.496 5.40909 409.414 5.40909C411.255 5.40909 412.226 6.89205 412.226 9.09091C412.226 11.3153 411.229 12.8494 409.414 12.8494ZM420.645 17.8864C422.997 17.8864 424.889 16.8125 424.889 14.2812V4.18182H423.431V5.74148H423.278C422.946 5.23011 422.332 4.05398 420.414 4.05398C417.934 4.05398 416.221 6.02273 416.221 9.03977C416.221 12.108 418.011 13.8466 420.389 13.8466C422.306 13.8466 422.92 12.7216 423.252 12.1847H423.38V14.179C423.38 15.8153 422.23 16.5568 420.645 16.5568C418.861 16.5568 418.235 15.6172 417.832 15.0739L416.63 15.9176C417.244 16.9467 418.452 17.8864 420.645 17.8864ZM420.593 12.4915C418.701 12.4915 417.73 11.0597 417.73 9.0142C417.73 7.01989 418.676 5.40909 420.593 5.40909C422.434 5.40909 423.406 6.89205 423.406 9.0142C423.406 11.1875 422.409 12.4915 420.593 12.4915ZM431.767 14.2045C433.761 14.2045 435.218 13.2074 435.679 11.7244L434.221 11.3153C433.838 12.3381 432.949 12.8494 431.767 12.8494C429.996 12.8494 428.775 11.7053 428.705 9.60227H435.832V8.96307C435.832 5.30682 433.659 4.05398 431.613 4.05398C428.954 4.05398 427.19 6.15057 427.19 9.16761C427.19 12.1847 428.929 14.2045 431.767 14.2045ZM428.705 8.2983C428.807 6.7706 429.887 5.40909 431.613 5.40909C433.25 5.40909 434.298 6.63636 434.298 8.2983H428.705ZM445.081 6.38068C444.608 4.98722 443.547 4.05398 441.604 4.05398C439.533 4.05398 437.999 5.23011 437.999 6.89205C437.999 8.24716 438.804 9.15483 440.607 9.5767L442.243 9.96023C443.234 10.1903 443.701 10.6634 443.701 11.3409C443.701 12.1847 442.806 12.875 441.4 12.875C440.166 12.875 439.392 12.3445 439.124 11.2898L437.692 11.6477C438.044 13.3161 439.418 14.2045 441.425 14.2045C443.707 14.2045 445.26 12.9581 445.26 11.2642C445.26 9.89631 444.404 9.03338 442.652 8.60511L441.195 8.24716C440.032 7.95952 439.507 7.5696 439.507 6.81534C439.507 5.97159 440.402 5.35795 441.604 5.35795C442.921 5.35795 443.464 6.08665 443.726 6.7642L445.081 6.38068ZM454.818 14H456.301L458.449 6.45739H458.602L460.75 14H462.233L465.224 4.18182H463.639L461.517 11.6733H461.415L459.344 4.18182H457.733L455.636 11.6989H455.534L453.412 4.18182H451.827L454.818 14ZM471.001 14.2045C472.995 14.2045 474.453 13.2074 474.913 11.7244L473.456 11.3153C473.072 12.3381 472.184 12.8494 471.001 12.8494C469.23 12.8494 468.01 11.7053 467.939 9.60227H475.066V8.96307C475.066 5.30682 472.893 4.05398 470.848 4.05398C468.189 4.05398 466.424 6.15057 466.424 9.16761C466.424 12.1847 468.163 14.2045 471.001 14.2045ZM467.939 8.2983C468.042 6.7706 469.122 5.40909 470.848 5.40909C472.484 5.40909 473.532 6.63636 473.532 8.2983H467.939ZM486.412 14.2045C489.071 14.2045 490.861 12.1847 490.861 9.14205C490.861 6.07386 489.071 4.05398 486.412 4.05398C483.753 4.05398 481.963 6.07386 481.963 9.14205C481.963 12.1847 483.753 14.2045 486.412 14.2045ZM486.412 12.8494C484.392 12.8494 483.472 11.1108 483.472 9.14205C483.472 7.1733 484.392 5.40909 486.412 5.40909C488.432 5.40909 489.353 7.1733 489.353 9.14205C489.353 11.1108 488.432 12.8494 486.412 12.8494ZM497.536 4.18182H495.337V3.18466C495.337 2.21307 495.746 1.7017 496.743 1.7017C497.178 1.7017 497.434 1.80398 497.587 1.85511L498.022 0.551136C497.792 0.448863 497.331 0.295454 496.59 0.295454C495.184 0.295454 493.829 1.1392 493.829 2.8267V4.18182H492.243V5.46023H493.829V14H495.337V5.46023H497.536V4.18182ZM504.022 4.18182H501.824V3.18466C501.824 2.21307 502.233 1.7017 503.23 1.7017C503.664 1.7017 503.92 1.80398 504.074 1.85511L504.508 0.551136C504.278 0.448863 503.818 0.295454 503.076 0.295454C501.67 0.295454 500.315 1.1392 500.315 2.8267V4.18182H498.73V5.46023H500.315V14H501.824V5.46023H504.022V4.18182ZM509.849 14.2045C511.843 14.2045 513.3 13.2074 513.761 11.7244L512.303 11.3153C511.92 12.3381 511.031 12.8494 509.849 12.8494C508.078 12.8494 506.857 11.7053 506.787 9.60227H513.914V8.96307C513.914 5.30682 511.741 4.05398 509.695 4.05398C507.036 4.05398 505.272 6.15057 505.272 9.16761C505.272 12.1847 507.011 14.2045 509.849 14.2045ZM506.787 8.2983C506.889 6.7706 507.969 5.40909 509.695 5.40909C511.332 5.40909 512.38 6.63636 512.38 8.2983H506.787ZM516.209 14H517.717V7.78693C517.717 6.46378 518.766 5.4858 520.197 5.4858C520.575 5.4858 520.856 5.55611 521.067 5.66477L521.578 4.38636C521.271 4.16903 520.869 4.02841 520.325 4.02841C519.136 4.02841 518.12 4.69318 517.768 5.66477H517.666V4.18182H516.209V14ZM531.887 14.2045C533.779 14.2045 534.418 13.0284 534.751 12.4915H534.93V14H536.387V4.18182H534.878V5.74148H534.751C534.418 5.23011 533.83 4.05398 531.912 4.05398C529.432 4.05398 527.719 6.02273 527.719 9.11648C527.719 12.2358 529.432 14.2045 531.887 14.2045ZM532.091 12.8494C530.199 12.8494 529.228 11.1875 529.228 9.09091C529.228 7.01989 530.174 5.40909 532.091 5.40909C533.932 5.40909 534.904 6.89205 534.904 9.09091C534.904 11.3153 533.907 12.8494 532.091 12.8494ZM539.359 14H540.868V7.78693C540.868 6.46378 541.916 5.4858 543.348 5.4858C543.725 5.4858 544.006 5.55611 544.217 5.66477L544.729 4.38636C544.422 4.16903 544.019 4.02841 543.476 4.02841C542.287 4.02841 541.27 4.69318 540.919 5.66477H540.817V4.18182H539.359V14ZM550.085 14.2045C552.079 14.2045 553.537 13.2074 553.997 11.7244L552.54 11.3153C552.156 12.3381 551.268 12.8494 550.085 12.8494C548.314 12.8494 547.094 11.7053 547.023 9.60227H554.15V8.96307C554.15 5.30682 551.977 4.05398 549.932 4.05398C547.273 4.05398 545.508 6.15057 545.508 9.16761C545.508 12.1847 547.247 14.2045 550.085 14.2045ZM547.023 8.2983C547.126 6.7706 548.206 5.40909 549.932 5.40909C551.568 5.40909 552.616 6.63636 552.616 8.2983H547.023ZM5.08807 46.2045C6.98011 46.2045 7.61932 45.0284 7.9517 44.4915H8.13068V46H9.58807V32.9091H8.07955V37.7415H7.9517C7.61932 37.2301 7.03125 36.054 5.11364 36.054C2.63352 36.054 0.920455 38.0227 0.920455 41.1165C0.920455 44.2358 2.63352 46.2045 5.08807 46.2045ZM5.29261 44.8494C3.40057 44.8494 2.42898 43.1875 2.42898 41.0909C2.42898 39.0199 3.375 37.4091 5.29261 37.4091C7.13352 37.4091 8.10511 38.892 8.10511 41.0909C8.10511 43.3153 7.10795 44.8494 5.29261 44.8494ZM16.6768 46.2045C18.6712 46.2045 20.1286 45.2074 20.5888 43.7244L19.1314 43.3153C18.7479 44.3381 17.8594 44.8494 16.6768 44.8494C14.9062 44.8494 13.6854 43.7053 13.6151 41.6023H20.7422V40.9631C20.7422 37.3068 18.5689 36.054 16.5234 36.054C13.8643 36.054 12.1001 38.1506 12.1001 41.1676C12.1001 44.1847 13.8388 46.2045 16.6768 46.2045ZM13.6151 40.2983C13.7173 38.7706 14.7976 37.4091 16.5234 37.4091C18.1598 37.4091 19.2081 38.6364 19.2081 40.2983H13.6151ZM23.0369 49.6818H24.5455V44.4915H24.6733C25.0057 45.0284 25.6449 46.2045 27.5369 46.2045C29.9915 46.2045 31.7045 44.2358 31.7045 41.1165C31.7045 38.0227 29.9915 36.054 27.5114 36.054C25.5938 36.054 25.0057 37.2301 24.6733 37.7415H24.4943V36.1818H23.0369V49.6818ZM24.5199 41.0909C24.5199 38.892 25.4915 37.4091 27.3324 37.4091C29.25 37.4091 30.196 39.0199 30.196 41.0909C30.196 43.1875 29.2244 44.8494 27.3324 44.8494C25.517 44.8494 24.5199 43.3153 24.5199 41.0909ZM34.0057 32.9091V43.8523C34.0057 45.2521 34.7216 46.0767 36.1534 46.0767C36.5881 46.0767 37.0163 46 37.2784 45.9233L36.9716 44.6193C36.8246 44.6641 36.6903 44.7088 36.3324 44.7216C35.6676 44.7408 35.5142 44.3956 35.5142 43.4432V32.9091H34.0057ZM42.6525 46.2045C45.3116 46.2045 47.1014 44.1847 47.1014 41.142C47.1014 38.0739 45.3116 36.054 42.6525 36.054C39.9934 36.054 38.2037 38.0739 38.2037 41.142C38.2037 44.1847 39.9934 46.2045 42.6525 46.2045ZM42.6525 44.8494C40.6326 44.8494 39.7122 43.1108 39.7122 41.142C39.7122 39.1733 40.6326 37.4091 42.6525 37.4091C44.6724 37.4091 45.5929 39.1733 45.5929 41.142C45.5929 43.1108 44.6724 44.8494 42.6525 44.8494ZM50.0241 49.6818C51.3857 49.6818 52.3445 48.9595 52.9134 47.4318L57.0938 36.2074L55.4446 36.1818L52.7344 44.0057H52.6321L49.9219 36.1818H48.2855L51.9162 46.0511L51.6349 46.8182C51.0852 48.3139 50.4077 48.4545 49.3082 48.1733L48.9247 49.5028C49.0781 49.5795 49.5128 49.6818 50.0241 49.6818ZM62.8546 46.2045C64.8489 46.2045 66.3063 45.2074 66.7665 43.7244L65.3091 43.3153C64.9256 44.3381 64.0371 44.8494 62.8546 44.8494C61.084 44.8494 59.8631 43.7053 59.7928 41.6023H66.9199V40.9631C66.9199 37.3068 64.7466 36.054 62.7012 36.054C60.0421 36.054 58.2779 38.1506 58.2779 41.1676C58.2779 44.1847 60.0165 46.2045 62.8546 46.2045ZM59.7928 40.2983C59.8951 38.7706 60.9753 37.4091 62.7012 37.4091C64.3375 37.4091 65.3858 38.6364 65.3858 40.2983H59.7928ZM72.9221 46.2045C74.8141 46.2045 75.4533 45.0284 75.7857 44.4915H75.9647V46H77.4221V32.9091H75.9135V37.7415H75.7857C75.4533 37.2301 74.8652 36.054 72.9476 36.054C70.4675 36.054 68.7544 38.0227 68.7544 41.1165C68.7544 44.2358 70.4675 46.2045 72.9221 46.2045ZM73.1266 44.8494C71.2346 44.8494 70.263 43.1875 70.263 41.0909C70.263 39.0199 71.209 37.4091 73.1266 37.4091C74.9675 37.4091 75.9391 38.892 75.9391 41.0909C75.9391 43.3153 74.9419 44.8494 73.1266 44.8494ZM85.4569 46H86.9654V36.1818H85.4569V46ZM86.2239 34.5455C86.812 34.5455 87.2978 34.0852 87.2978 33.5227C87.2978 32.9602 86.812 32.5 86.2239 32.5C85.6358 32.5 85.15 32.9602 85.15 33.5227C85.15 34.0852 85.6358 34.5455 86.2239 34.5455ZM91.2369 40.0938C91.2369 38.3807 92.2979 37.4091 93.7425 37.4091C95.1424 37.4091 95.9925 38.3232 95.9925 39.8636V46H97.5011V39.7614C97.5011 37.2557 96.1651 36.054 94.1772 36.054C92.6942 36.054 91.7738 36.7188 91.3136 37.7159H91.1857V36.1818H89.7283V46H91.2369V40.0938ZM107.212 38.3807C106.739 36.9872 105.678 36.054 103.735 36.054C101.664 36.054 100.13 37.2301 100.13 38.892C100.13 40.2472 100.935 41.1548 102.738 41.5767L104.374 41.9602C105.365 42.1903 105.831 42.6634 105.831 43.3409C105.831 44.1847 104.937 44.875 103.53 44.875C102.297 44.875 101.523 44.3445 101.255 43.2898L99.823 43.6477C100.175 45.3161 101.549 46.2045 103.556 46.2045C105.838 46.2045 107.391 44.9581 107.391 43.2642C107.391 41.8963 106.535 41.0334 104.783 40.6051L103.326 40.2472C102.162 39.9595 101.638 39.5696 101.638 38.8153C101.638 37.9716 102.533 37.358 103.735 37.358C105.052 37.358 105.595 38.0866 105.857 38.7642L107.212 38.3807ZM113.932 36.1818H111.835V33.8295H110.327V36.1818H108.844V37.4602H110.327V43.5966C110.327 45.3097 111.707 46.1278 112.986 46.1278C113.548 46.1278 113.906 46.0256 114.111 45.9489L113.804 44.5938C113.676 44.6193 113.472 44.6705 113.139 44.6705C112.474 44.6705 111.835 44.4659 111.835 43.1875V37.4602H113.932V36.1818ZM119.803 46.2045C121.695 46.2045 122.334 45.0284 122.667 44.4915H122.846V46H124.303V36.1818H122.794V37.7415H122.667C122.334 37.2301 121.746 36.054 119.828 36.054C117.348 36.054 115.635 38.0227 115.635 41.1165C115.635 44.2358 117.348 46.2045 119.803 46.2045ZM120.007 44.8494C118.115 44.8494 117.144 43.1875 117.144 41.0909C117.144 39.0199 118.09 37.4091 120.007 37.4091C121.848 37.4091 122.82 38.892 122.82 41.0909C122.82 43.3153 121.823 44.8494 120.007 44.8494ZM128.784 40.0938C128.784 38.3807 129.845 37.4091 131.289 37.4091C132.689 37.4091 133.539 38.3232 133.539 39.8636V46H135.048V39.7614C135.048 37.2557 133.712 36.054 131.724 36.054C130.241 36.054 129.321 36.7188 128.86 37.7159H128.733V36.1818H127.275V46H128.784V40.0938ZM142.074 36.1818H139.978V33.8295H138.469V36.1818H136.986V37.4602H138.469V43.5966C138.469 45.3097 139.85 46.1278 141.128 46.1278C141.691 46.1278 142.049 46.0256 142.253 45.9489L141.947 44.5938C141.819 44.6193 141.614 44.6705 141.282 44.6705C140.617 44.6705 139.978 44.4659 139.978 43.1875V37.4602H142.074V36.1818ZM144.555 32.9091V43.8523C144.555 45.2521 145.27 46.0767 146.702 46.0767C147.137 46.0767 147.565 46 147.827 45.9233L147.52 44.6193C147.373 44.6641 147.239 44.7088 146.881 44.7216C146.216 44.7408 146.063 44.3956 146.063 43.4432V32.9091H144.555ZM150.184 49.6818C151.546 49.6818 152.505 48.9595 153.074 47.4318L157.254 36.2074L155.605 36.1818L152.895 44.0057H152.792L150.082 36.1818H148.446L152.076 46.0511L151.795 46.8182C151.245 48.3139 150.568 48.4545 149.468 48.1733L149.085 49.5028C149.238 49.5795 149.673 49.6818 150.184 49.6818ZM168.301 46.2045C170.96 46.2045 172.75 44.1847 172.75 41.142C172.75 38.0739 170.96 36.054 168.301 36.054C165.642 36.054 163.852 38.0739 163.852 41.142C163.852 44.1847 165.642 46.2045 168.301 46.2045ZM168.301 44.8494C166.281 44.8494 165.361 43.1108 165.361 41.142C165.361 39.1733 166.281 37.4091 168.301 37.4091C170.321 37.4091 171.241 39.1733 171.241 41.142C171.241 43.1108 170.321 44.8494 168.301 44.8494ZM176.561 40.0938C176.561 38.3807 177.622 37.4091 179.067 37.4091C180.467 37.4091 181.317 38.3232 181.317 39.8636V46H182.825V39.7614C182.825 37.2557 181.489 36.054 179.501 36.054C178.018 36.054 177.098 36.7188 176.638 37.7159H176.51V36.1818H175.053V46H176.561V40.0938ZM194.633 46.2045C197.292 46.2045 199.082 44.1847 199.082 41.142C199.082 38.0739 197.292 36.054 194.633 36.054C191.974 36.054 190.184 38.0739 190.184 41.142C190.184 44.1847 191.974 46.2045 194.633 46.2045ZM194.633 44.8494C192.613 44.8494 191.693 43.1108 191.693 41.142C191.693 39.1733 192.613 37.4091 194.633 37.4091C196.653 37.4091 197.573 39.1733 197.573 41.142C197.573 43.1108 196.653 44.8494 194.633 44.8494ZM207.572 41.9858C207.572 43.8267 206.166 44.6705 205.041 44.6705C203.788 44.6705 202.893 43.75 202.893 42.3182V36.1818H201.385V42.4205C201.385 44.9261 202.714 46.1278 204.555 46.1278C206.038 46.1278 207.01 45.3352 207.47 44.3381H207.572V46H209.081V36.1818H207.572V41.9858ZM211.844 46H213.352V39.7869C213.352 38.4638 214.4 37.4858 215.832 37.4858C216.209 37.4858 216.491 37.5561 216.702 37.6648L217.213 36.3864C216.906 36.169 216.503 36.0284 215.96 36.0284C214.771 36.0284 213.755 36.6932 213.403 37.6648H213.301V36.1818H211.844V46ZM231.178 36.1818H232.712C232.642 34.2067 230.82 32.7301 228.289 32.7301C225.783 32.7301 223.814 34.1875 223.814 36.3864C223.814 38.1506 225.093 39.1989 227.138 39.7869L228.749 40.2472C230.13 40.6307 231.357 41.1165 231.357 42.4205C231.357 43.8523 229.976 44.7983 228.161 44.7983C226.601 44.7983 225.221 44.108 225.093 42.625H223.456C223.61 44.7727 225.348 46.2301 228.161 46.2301C231.178 46.2301 232.891 44.5682 232.891 42.446C232.891 39.9915 230.564 39.1989 229.209 38.8409L227.88 38.483C226.908 38.2273 225.348 37.7159 225.348 36.3097C225.348 35.0568 226.499 34.1364 228.238 34.1364C229.823 34.1364 231.025 34.8906 231.178 36.1818ZM242.656 36.1818H244.191C244.12 34.2067 242.298 32.7301 239.767 32.7301C237.262 32.7301 235.293 34.1875 235.293 36.3864C235.293 38.1506 236.571 39.1989 238.617 39.7869L240.227 40.2472C241.608 40.6307 242.835 41.1165 242.835 42.4205C242.835 43.8523 241.455 44.7983 239.639 44.7983C238.08 44.7983 236.699 44.108 236.571 42.625H234.935C235.088 44.7727 236.827 46.2301 239.639 46.2301C242.656 46.2301 244.369 44.5682 244.369 42.446C244.369 39.9915 242.043 39.1989 240.688 38.8409L239.358 38.483C238.387 38.2273 236.827 37.7159 236.827 36.3097C236.827 35.0568 237.977 34.1364 239.716 34.1364C241.301 34.1364 242.503 34.8906 242.656 36.1818ZM251.016 46C255.004 46 257.254 43.5199 257.254 39.429C257.254 35.3636 255.004 32.9091 251.195 32.9091H246.976V46H251.016ZM248.561 44.5938V34.3153H251.092C254.161 34.3153 255.72 36.2585 255.72 39.429C255.72 42.625 254.161 44.5938 250.913 44.5938H248.561ZM264.771 49.6818H266.28V44.4915H266.408C266.74 45.0284 267.379 46.2045 269.271 46.2045C271.726 46.2045 273.439 44.2358 273.439 41.1165C273.439 38.0227 271.726 36.054 269.246 36.054C267.328 36.054 266.74 37.2301 266.408 37.7415H266.229V36.1818H264.771V49.6818ZM266.254 41.0909C266.254 38.892 267.226 37.4091 269.067 37.4091C270.984 37.4091 271.93 39.0199 271.93 41.0909C271.93 43.1875 270.959 44.8494 269.067 44.8494C267.251 44.8494 266.254 43.3153 266.254 41.0909ZM279.729 46.2045C282.388 46.2045 284.178 44.1847 284.178 41.142C284.178 38.0739 282.388 36.054 279.729 36.054C277.07 36.054 275.28 38.0739 275.28 41.142C275.28 44.1847 277.07 46.2045 279.729 46.2045ZM279.729 44.8494C277.709 44.8494 276.788 43.1108 276.788 41.142C276.788 39.1733 277.709 37.4091 279.729 37.4091C281.749 37.4091 282.669 39.1733 282.669 41.142C282.669 43.1108 281.749 44.8494 279.729 44.8494ZM288.371 46H289.854L292.001 38.4574H292.155L294.303 46H295.786L298.777 36.1818H297.192L295.07 43.6733H294.967L292.896 36.1818H291.286L289.189 43.6989H289.087L286.964 36.1818H285.379L288.371 46ZM304.554 46.2045C306.548 46.2045 308.006 45.2074 308.466 43.7244L307.008 43.3153C306.625 44.3381 305.736 44.8494 304.554 44.8494C302.783 44.8494 301.562 43.7053 301.492 41.6023H308.619V40.9631C308.619 37.3068 306.446 36.054 304.4 36.054C301.741 36.054 299.977 38.1506 299.977 41.1676C299.977 44.1847 301.716 46.2045 304.554 46.2045ZM301.492 40.2983C301.594 38.7706 302.675 37.4091 304.4 37.4091C306.037 37.4091 307.085 38.6364 307.085 40.2983H301.492ZM310.914 46H312.422V39.7869C312.422 38.4638 313.471 37.4858 314.903 37.4858C315.28 37.4858 315.561 37.5561 315.772 37.6648L316.283 36.3864C315.976 36.169 315.574 36.0284 315.03 36.0284C313.841 36.0284 312.825 36.6932 312.474 37.6648H312.371V36.1818H310.914V46ZM321.64 46.2045C323.634 46.2045 325.091 45.2074 325.552 43.7244L324.094 43.3153C323.711 44.3381 322.822 44.8494 321.64 44.8494C319.869 44.8494 318.648 43.7053 318.578 41.6023H325.705V40.9631C325.705 37.3068 323.532 36.054 321.486 36.054C318.827 36.054 317.063 38.1506 317.063 41.1676C317.063 44.1847 318.802 46.2045 321.64 46.2045ZM318.578 40.2983C318.68 38.7706 319.76 37.4091 321.486 37.4091C323.123 37.4091 324.171 38.6364 324.171 40.2983H318.578ZM331.707 46.2045C333.599 46.2045 334.238 45.0284 334.571 44.4915H334.75V46H336.207V32.9091H334.699V37.7415H334.571C334.238 37.2301 333.65 36.054 331.733 36.054C329.253 36.054 327.54 38.0227 327.54 41.1165C327.54 44.2358 329.253 46.2045 331.707 46.2045ZM331.912 44.8494C330.02 44.8494 329.048 43.1875 329.048 41.0909C329.048 39.0199 329.994 37.4091 331.912 37.4091C333.753 37.4091 334.724 38.892 334.724 41.0909C334.724 43.3153 333.727 44.8494 331.912 44.8494ZM348.231 46.2045C350.404 46.2045 351.836 44.875 352.091 43.1364H350.583C350.302 44.2102 349.407 44.8494 348.231 44.8494C346.441 44.8494 345.29 43.3665 345.29 41.0909C345.29 38.8665 346.466 37.4091 348.231 37.4091C349.56 37.4091 350.353 38.2273 350.583 39.1222H352.091C351.836 37.2812 350.276 36.054 348.205 36.054C345.546 36.054 343.782 38.1506 343.782 41.142C343.782 44.0824 345.469 46.2045 348.231 46.2045ZM354.297 32.9091V43.8523C354.297 45.2521 355.013 46.0767 356.444 46.0767C356.879 46.0767 357.307 46 357.569 45.9233L357.263 44.6193C357.116 44.6641 356.981 44.7088 356.623 44.7216C355.959 44.7408 355.805 44.3956 355.805 43.4432V32.9091H354.297ZM362.944 46.2045C365.603 46.2045 367.392 44.1847 367.392 41.142C367.392 38.0739 365.603 36.054 362.944 36.054C360.284 36.054 358.495 38.0739 358.495 41.142C358.495 44.1847 360.284 46.2045 362.944 46.2045ZM362.944 44.8494C360.924 44.8494 360.003 43.1108 360.003 41.142C360.003 39.1733 360.924 37.4091 362.944 37.4091C364.963 37.4091 365.884 39.1733 365.884 41.142C365.884 43.1108 364.963 44.8494 362.944 44.8494ZM375.883 41.9858C375.883 43.8267 374.476 44.6705 373.351 44.6705C372.099 44.6705 371.204 43.75 371.204 42.3182V36.1818H369.695V42.4205C369.695 44.9261 371.025 46.1278 372.866 46.1278C374.349 46.1278 375.32 45.3352 375.78 44.3381H375.883V46H377.391V36.1818H375.883V41.9858ZM383.862 46.2045C385.754 46.2045 386.393 45.0284 386.725 44.4915H386.904V46H388.362V32.9091H386.853V37.7415H386.725C386.393 37.2301 385.805 36.054 383.887 36.054C381.407 36.054 379.694 38.0227 379.694 41.1165C379.694 44.2358 381.407 46.2045 383.862 46.2045ZM384.066 44.8494C382.174 44.8494 381.202 43.1875 381.202 41.0909C381.202 39.0199 382.148 37.4091 384.066 37.4091C385.907 37.4091 386.879 38.892 386.879 41.0909C386.879 43.3153 385.881 44.8494 384.066 44.8494ZM392.433 46.1023C393.066 46.1023 393.584 45.5845 393.584 44.9517C393.584 44.3189 393.066 43.8011 392.433 43.8011C391.8 43.8011 391.283 44.3189 391.283 44.9517C391.283 45.5845 391.8 46.1023 392.433 46.1023ZM403.936 46H405.572L408.461 35.5682H408.564L411.453 46H413.089L416.669 32.9091H415.058L412.322 43.571H412.194L409.407 32.9091H407.618L404.831 43.571H404.703L401.967 32.9091H400.356L403.936 46ZM421.642 46.2045C423.636 46.2045 425.093 45.2074 425.554 43.7244L424.096 43.3153C423.713 44.3381 422.824 44.8494 421.642 44.8494C419.871 44.8494 418.65 43.7053 418.58 41.6023H425.707V40.9631C425.707 37.3068 423.534 36.054 421.488 36.054C418.829 36.054 417.065 38.1506 417.065 41.1676C417.065 44.1847 418.804 46.2045 421.642 46.2045ZM418.58 40.2983C418.682 38.7706 419.762 37.4091 421.488 37.4091C423.125 37.4091 424.173 38.6364 424.173 40.2983H418.58ZM436.772 46.2045C438.664 46.2045 439.303 45.0284 439.635 44.4915H439.814V46H441.272V32.9091H439.763V37.7415H439.635C439.303 37.2301 438.715 36.054 436.797 36.054C434.317 36.054 432.604 38.0227 432.604 41.1165C432.604 44.2358 434.317 46.2045 436.772 46.2045ZM436.976 44.8494C435.084 44.8494 434.113 43.1875 434.113 41.0909C434.113 39.0199 435.059 37.4091 436.976 37.4091C438.817 37.4091 439.789 38.892 439.789 41.0909C439.789 43.3153 438.792 44.8494 436.976 44.8494ZM448.233 46.2045C450.892 46.2045 452.681 44.1847 452.681 41.142C452.681 38.0739 450.892 36.054 448.233 36.054C445.574 36.054 443.784 38.0739 443.784 41.142C443.784 44.1847 445.574 46.2045 448.233 46.2045ZM448.233 44.8494C446.213 44.8494 445.292 43.1108 445.292 41.142C445.292 39.1733 446.213 37.4091 448.233 37.4091C450.252 37.4091 451.173 39.1733 451.173 41.142C451.173 43.1108 450.252 44.8494 448.233 44.8494ZM456.493 40.0938C456.493 38.3807 457.554 37.4091 458.998 37.4091C460.398 37.4091 461.248 38.3232 461.248 39.8636V46H462.757V39.7614C462.757 37.2557 461.421 36.054 459.433 36.054C457.95 36.054 457.03 36.7188 456.569 37.7159H456.442V36.1818H454.984V46H456.493V40.0938ZM466.843 32.9091H465.411V34.0852C465.411 35.0312 464.951 35.8494 464.414 36.6165L465.232 37.2812C466.255 36.4631 466.843 35.108 466.843 34.0597V32.9091ZM473.369 36.1818H471.273V33.8295H469.764V36.1818H468.281V37.4602H469.764V43.5966C469.764 45.3097 471.145 46.1278 472.423 46.1278C472.986 46.1278 473.344 46.0256 473.548 45.9489L473.241 44.5938C473.114 44.6193 472.909 44.6705 472.577 44.6705C471.912 44.6705 471.273 44.4659 471.273 43.1875V37.4602H473.369V36.1818ZM486.888 41.9858C486.888 43.8267 485.482 44.6705 484.357 44.6705C483.104 44.6705 482.21 43.75 482.21 42.3182V36.1818H480.701V42.4205C480.701 44.9261 482.031 46.1278 483.871 46.1278C485.354 46.1278 486.326 45.3352 486.786 44.3381H486.888V46H488.397V36.1818H486.888V41.9858ZM498.115 38.3807C497.642 36.9872 496.58 36.054 494.637 36.054C492.566 36.054 491.032 37.2301 491.032 38.892C491.032 40.2472 491.838 41.1548 493.64 41.5767L495.276 41.9602C496.267 42.1903 496.734 42.6634 496.734 43.3409C496.734 44.1847 495.839 44.875 494.433 44.875C493.199 44.875 492.426 44.3445 492.157 43.2898L490.725 43.6477C491.077 45.3161 492.451 46.2045 494.458 46.2045C496.74 46.2045 498.294 44.9581 498.294 43.2642C498.294 41.8963 497.437 41.0334 495.686 40.6051L494.228 40.2472C493.065 39.9595 492.541 39.5696 492.541 38.8153C492.541 37.9716 493.436 37.358 494.637 37.358C495.954 37.358 496.497 38.0866 496.759 38.7642L498.115 38.3807ZM504.681 46.2045C506.675 46.2045 508.132 45.2074 508.593 43.7244L507.135 43.3153C506.752 44.3381 505.863 44.8494 504.681 44.8494C502.91 44.8494 501.689 43.7053 501.619 41.6023H508.746V40.9631C508.746 37.3068 506.573 36.054 504.527 36.054C501.868 36.054 500.104 38.1506 500.104 41.1676C500.104 44.1847 501.843 46.2045 504.681 46.2045ZM501.619 40.2983C501.721 38.7706 502.801 37.4091 504.527 37.4091C506.164 37.4091 507.212 38.6364 507.212 40.2983H501.619ZM5.08807 78.2045C6.98011 78.2045 7.61932 77.0284 7.9517 76.4915H8.13068V78H9.58807V64.9091H8.07955V69.7415H7.9517C7.61932 69.2301 7.03125 68.054 5.11364 68.054C2.63352 68.054 0.920455 70.0227 0.920455 73.1165C0.920455 76.2358 2.63352 78.2045 5.08807 78.2045ZM5.29261 76.8494C3.40057 76.8494 2.42898 75.1875 2.42898 73.0909C2.42898 71.0199 3.375 69.4091 5.29261 69.4091C7.13352 69.4091 8.10511 70.892 8.10511 73.0909C8.10511 75.3153 7.10795 76.8494 5.29261 76.8494ZM16.6768 78.2045C18.6712 78.2045 20.1286 77.2074 20.5888 75.7244L19.1314 75.3153C18.7479 76.3381 17.8594 76.8494 16.6768 76.8494C14.9062 76.8494 13.6854 75.7053 13.6151 73.6023H20.7422V72.9631C20.7422 69.3068 18.5689 68.054 16.5234 68.054C13.8643 68.054 12.1001 70.1506 12.1001 73.1676C12.1001 76.1847 13.8388 78.2045 16.6768 78.2045ZM13.6151 72.2983C13.7173 70.7706 14.7976 69.4091 16.5234 69.4091C18.1598 69.4091 19.2081 70.6364 19.2081 72.2983H13.6151ZM26.7443 78.2045C28.6364 78.2045 29.2756 77.0284 29.608 76.4915H29.7869V78H31.2443V64.9091H29.7358V69.7415H29.608C29.2756 69.2301 28.6875 68.054 26.7699 68.054C24.2898 68.054 22.5767 70.0227 22.5767 73.1165C22.5767 76.2358 24.2898 78.2045 26.7443 78.2045ZM26.9489 76.8494C25.0568 76.8494 24.0852 75.1875 24.0852 73.0909C24.0852 71.0199 25.0312 69.4091 26.9489 69.4091C28.7898 69.4091 29.7614 70.892 29.7614 73.0909C29.7614 75.3153 28.7642 76.8494 26.9489 76.8494ZM34.2166 78H35.7251V68.1818H34.2166V78ZM34.9837 66.5455C35.5717 66.5455 36.0575 66.0852 36.0575 65.5227C36.0575 64.9602 35.5717 64.5 34.9837 64.5C34.3956 64.5 33.9098 64.9602 33.9098 65.5227C33.9098 66.0852 34.3956 66.5455 34.9837 66.5455ZM42.4767 78.2045C44.65 78.2045 46.0819 76.875 46.3375 75.1364H44.829C44.5478 76.2102 43.6529 76.8494 42.4767 76.8494C40.687 76.8494 39.5364 75.3665 39.5364 73.0909C39.5364 70.8665 40.7125 69.4091 42.4767 69.4091C43.8063 69.4091 44.5989 70.2273 44.829 71.1222H46.3375C46.0819 69.2812 44.5222 68.054 42.4512 68.054C39.7921 68.054 38.0279 70.1506 38.0279 73.142C38.0279 76.0824 39.7154 78.2045 42.4767 78.2045ZM52.2502 78.2045C54.1422 78.2045 54.7814 77.0284 55.1138 76.4915H55.2928V78H56.7502V68.1818H55.2417V69.7415H55.1138C54.7814 69.2301 54.1934 68.054 52.2757 68.054C49.7956 68.054 48.0826 70.0227 48.0826 73.1165C48.0826 76.2358 49.7956 78.2045 52.2502 78.2045ZM52.4547 76.8494C50.5627 76.8494 49.5911 75.1875 49.5911 73.0909C49.5911 71.0199 50.5371 69.4091 52.4547 69.4091C54.2956 69.4091 55.2672 70.892 55.2672 73.0909C55.2672 75.3153 54.2701 76.8494 52.4547 76.8494ZM63.9924 68.1818H61.8958V65.8295H60.3873V68.1818H58.9043V69.4602H60.3873V75.5966C60.3873 77.3097 61.7679 78.1278 63.0463 78.1278C63.6088 78.1278 63.9668 78.0256 64.1713 77.9489L63.8645 76.5938C63.7367 76.6193 63.5321 76.6705 63.1998 76.6705C62.535 76.6705 61.8958 76.4659 61.8958 75.1875V69.4602H63.9924V68.1818ZM70.2726 78.2045C72.2669 78.2045 73.7243 77.2074 74.1845 75.7244L72.7271 75.3153C72.3436 76.3381 71.4551 76.8494 70.2726 76.8494C68.502 76.8494 67.2811 75.7053 67.2108 73.6023H74.3379V72.9631C74.3379 69.3068 72.1646 68.054 70.1191 68.054C67.46 68.054 65.6958 70.1506 65.6958 73.1676C65.6958 76.1847 67.4345 78.2045 70.2726 78.2045ZM67.2108 72.2983C67.313 70.7706 68.3933 69.4091 70.1191 69.4091C71.7555 69.4091 72.8038 70.6364 72.8038 72.2983H67.2108ZM80.34 78.2045C82.2321 78.2045 82.8713 77.0284 83.2037 76.4915H83.3826V78H84.84V64.9091H83.3315V69.7415H83.2037C82.8713 69.2301 82.2832 68.054 80.3656 68.054C77.8855 68.054 76.1724 70.0227 76.1724 73.1165C76.1724 76.2358 77.8855 78.2045 80.34 78.2045ZM80.5446 76.8494C78.6525 76.8494 77.6809 75.1875 77.6809 73.0909C77.6809 71.0199 78.627 69.4091 80.5446 69.4091C82.3855 69.4091 83.3571 70.892 83.3571 73.0909C83.3571 75.3153 82.3599 76.8494 80.5446 76.8494ZM99.8294 70.3807C99.3564 68.9872 98.2953 68.054 96.3521 68.054C94.2811 68.054 92.747 69.2301 92.747 70.892C92.747 72.2472 93.5524 73.1548 95.3549 73.5767L96.9913 73.9602C97.9821 74.1903 98.4487 74.6634 98.4487 75.3409C98.4487 76.1847 97.5538 76.875 96.1476 76.875C94.9139 76.875 94.1404 76.3445 93.872 75.2898L92.4402 75.6477C92.7917 77.3161 94.166 78.2045 96.1731 78.2045C98.4551 78.2045 100.008 76.9581 100.008 75.2642C100.008 73.8963 99.1518 73.0334 97.4004 72.6051L95.943 72.2472C94.7797 71.9595 94.2555 71.5696 94.2555 70.8153C94.2555 69.9716 95.1504 69.358 96.3521 69.358C97.6689 69.358 98.2122 70.0866 98.4743 70.7642L99.8294 70.3807ZM106.396 78.2045C108.39 78.2045 109.847 77.2074 110.308 75.7244L108.85 75.3153C108.467 76.3381 107.578 76.8494 106.396 76.8494C104.625 76.8494 103.404 75.7053 103.334 73.6023H110.461V72.9631C110.461 69.3068 108.288 68.054 106.242 68.054C103.583 68.054 101.819 70.1506 101.819 73.1676C101.819 76.1847 103.558 78.2045 106.396 78.2045ZM103.334 72.2983C103.436 70.7706 104.516 69.4091 106.242 69.4091C107.879 69.4091 108.927 70.6364 108.927 72.2983H103.334ZM112.756 78H114.264V71.7869C114.264 70.4638 115.312 69.4858 116.744 69.4858C117.121 69.4858 117.403 69.5561 117.614 69.6648L118.125 68.3864C117.818 68.169 117.415 68.0284 116.872 68.0284C115.683 68.0284 114.667 68.6932 114.315 69.6648H114.213V68.1818H112.756V78ZM127.85 68.1818H126.214L123.504 76.0057H123.402L120.691 68.1818H119.055L122.686 78H124.22L127.85 68.1818ZM133.607 78.2045C135.601 78.2045 137.058 77.2074 137.518 75.7244L136.061 75.3153C135.678 76.3381 134.789 76.8494 133.607 76.8494C131.836 76.8494 130.615 75.7053 130.545 73.6023H137.672V72.9631C137.672 69.3068 135.499 68.054 133.453 68.054C130.794 68.054 129.03 70.1506 129.03 73.1676C129.03 76.1847 130.768 78.2045 133.607 78.2045ZM130.545 72.2983C130.647 70.7706 131.727 69.4091 133.453 69.4091C135.089 69.4091 136.138 70.6364 136.138 72.2983H130.545ZM139.967 78H141.475V71.7869C141.475 70.4638 142.523 69.4858 143.955 69.4858C144.332 69.4858 144.614 69.5561 144.825 69.6648L145.336 68.3864C145.029 68.169 144.626 68.0284 144.083 68.0284C142.894 68.0284 141.878 68.6932 141.526 69.6648H141.424V68.1818H139.967V78ZM153.829 70.3807C153.356 68.9872 152.295 68.054 150.352 68.054C148.281 68.054 146.747 69.2301 146.747 70.892C146.747 72.2472 147.552 73.1548 149.355 73.5767L150.991 73.9602C151.982 74.1903 152.449 74.6634 152.449 75.3409C152.449 76.1847 151.554 76.875 150.148 76.875C148.914 76.875 148.14 76.3445 147.872 75.2898L146.44 75.6477C146.792 77.3161 148.166 78.2045 150.173 78.2045C152.455 78.2045 154.008 76.9581 154.008 75.2642C154.008 73.8963 153.152 73.0334 151.4 72.6051L149.943 72.2472C148.78 71.9595 148.256 71.5696 148.256 70.8153C148.256 69.9716 149.15 69.358 150.352 69.358C151.669 69.358 152.212 70.0866 152.474 70.7642L153.829 70.3807ZM165.612 68.1818H163.515V65.8295H162.006V68.1818H160.523V69.4602H162.006V75.5966C162.006 77.3097 163.387 78.1278 164.665 78.1278C165.228 78.1278 165.586 78.0256 165.79 77.9489L165.484 76.5938C165.356 76.6193 165.151 76.6705 164.819 76.6705C164.154 76.6705 163.515 76.4659 163.515 75.1875V69.4602H165.612V68.1818ZM169.6 72.0938C169.6 70.3807 170.693 69.4091 172.183 69.4091C173.602 69.4091 174.458 70.304 174.458 71.8636V78H175.967V71.7614C175.967 69.2365 174.624 68.054 172.617 68.054C171.07 68.054 170.188 68.6996 169.728 69.7159H169.6V64.9091H168.092V78H169.6V72.0938ZM182.434 78.2045C184.326 78.2045 184.965 77.0284 185.297 76.4915H185.476V78H186.934V68.1818H185.425V69.7415H185.297C184.965 69.2301 184.377 68.054 182.459 68.054C179.979 68.054 178.266 70.0227 178.266 73.1165C178.266 76.2358 179.979 78.2045 182.434 78.2045ZM182.638 76.8494C180.746 76.8494 179.775 75.1875 179.775 73.0909C179.775 71.0199 180.721 69.4091 182.638 69.4091C184.479 69.4091 185.451 70.892 185.451 73.0909C185.451 75.3153 184.454 76.8494 182.638 76.8494ZM194.176 68.1818H192.079V65.8295H190.571V68.1818H189.088V69.4602H190.571V75.5966C190.571 77.3097 191.952 78.1278 193.23 78.1278C193.792 78.1278 194.15 78.0256 194.355 77.9489L194.048 76.5938C193.92 76.6193 193.716 76.6705 193.383 76.6705C192.719 76.6705 192.079 76.4659 192.079 75.1875V69.4602H194.176V68.1818ZM205.496 78.2045C208.155 78.2045 209.945 76.1847 209.945 73.142C209.945 70.0739 208.155 68.054 205.496 68.054C202.837 68.054 201.047 70.0739 201.047 73.142C201.047 76.1847 202.837 78.2045 205.496 78.2045ZM205.496 76.8494C203.476 76.8494 202.556 75.1108 202.556 73.142C202.556 71.1733 203.476 69.4091 205.496 69.4091C207.516 69.4091 208.437 71.1733 208.437 73.142C208.437 75.1108 207.516 76.8494 205.496 76.8494ZM212.248 81.6818H213.756V76.4915H213.884C214.217 77.0284 214.856 78.2045 216.748 78.2045C219.202 78.2045 220.915 76.2358 220.915 73.1165C220.915 70.0227 219.202 68.054 216.722 68.054C214.805 68.054 214.217 69.2301 213.884 69.7415H213.705V68.1818H212.248V81.6818ZM213.731 73.0909C213.731 70.892 214.702 69.4091 216.543 69.4091C218.461 69.4091 219.407 71.0199 219.407 73.0909C219.407 75.1875 218.435 76.8494 216.543 76.8494C214.728 76.8494 213.731 75.3153 213.731 73.0909ZM227.333 78.2045C229.327 78.2045 230.785 77.2074 231.245 75.7244L229.788 75.3153C229.404 76.3381 228.516 76.8494 227.333 76.8494C225.562 76.8494 224.342 75.7053 224.271 73.6023H231.398V72.9631C231.398 69.3068 229.225 68.054 227.18 68.054C224.521 68.054 222.756 70.1506 222.756 73.1676C222.756 76.1847 224.495 78.2045 227.333 78.2045ZM224.271 72.2983C224.374 70.7706 225.454 69.4091 227.18 69.4091C228.816 69.4091 229.864 70.6364 229.864 72.2983H224.271ZM233.693 78H235.202V71.7869C235.202 70.4638 236.25 69.4858 237.682 69.4858C238.059 69.4858 238.34 69.5561 238.551 69.6648L239.062 68.3864C238.756 68.169 238.353 68.0284 237.81 68.0284C236.621 68.0284 235.604 68.6932 235.253 69.6648H235.151V68.1818H233.693V78ZM244.01 78.2045C245.902 78.2045 246.541 77.0284 246.874 76.4915H247.053V78H248.51V68.1818H247.001V69.7415H246.874C246.541 69.2301 245.953 68.054 244.036 68.054C241.555 68.054 239.842 70.0227 239.842 73.1165C239.842 76.2358 241.555 78.2045 244.01 78.2045ZM244.214 76.8494C242.322 76.8494 241.351 75.1875 241.351 73.0909C241.351 71.0199 242.297 69.4091 244.214 69.4091C246.055 69.4091 247.027 70.892 247.027 73.0909C247.027 75.3153 246.03 76.8494 244.214 76.8494ZM255.752 68.1818H253.656V65.8295H252.147V68.1818H250.664V69.4602H252.147V75.5966C252.147 77.3097 253.528 78.1278 254.806 78.1278C255.369 78.1278 255.727 78.0256 255.931 77.9489L255.624 76.5938C255.496 76.6193 255.292 76.6705 254.96 76.6705C254.295 76.6705 253.656 76.4659 253.656 75.1875V69.4602H255.752V68.1818ZM262.032 78.2045C264.027 78.2045 265.484 77.2074 265.944 75.7244L264.487 75.3153C264.103 76.3381 263.215 76.8494 262.032 76.8494C260.262 76.8494 259.041 75.7053 258.971 73.6023H266.098V72.9631C266.098 69.3068 263.924 68.054 261.879 68.054C259.22 68.054 257.456 70.1506 257.456 73.1676C257.456 76.1847 259.194 78.2045 262.032 78.2045ZM258.971 72.2983C259.073 70.7706 260.153 69.4091 261.879 69.4091C263.515 69.4091 264.564 70.6364 264.564 72.2983H258.971ZM277.444 78.2045C280.103 78.2045 281.892 76.1847 281.892 73.142C281.892 70.0739 280.103 68.054 277.444 68.054C274.784 68.054 272.995 70.0739 272.995 73.142C272.995 76.1847 274.784 78.2045 277.444 78.2045ZM277.444 76.8494C275.424 76.8494 274.503 75.1108 274.503 73.142C274.503 71.1733 275.424 69.4091 277.444 69.4091C279.463 69.4091 280.384 71.1733 280.384 73.142C280.384 75.1108 279.463 76.8494 277.444 76.8494ZM285.704 72.0938C285.704 70.3807 286.765 69.4091 288.209 69.4091C289.609 69.4091 290.459 70.3232 290.459 71.8636V78H291.968V71.7614C291.968 69.2557 290.632 68.054 288.644 68.054C287.161 68.054 286.241 68.7188 285.78 69.7159H285.653V68.1818H284.195V78H285.704V72.0938ZM306.741 70.3807C306.268 68.9872 305.207 68.054 303.264 68.054C301.193 68.054 299.659 69.2301 299.659 70.892C299.659 72.2472 300.464 73.1548 302.267 73.5767L303.903 73.9602C304.894 74.1903 305.361 74.6634 305.361 75.3409C305.361 76.1847 304.466 76.875 303.06 76.875C301.826 76.875 301.053 76.3445 300.784 75.2898L299.352 75.6477C299.704 77.3161 301.078 78.2045 303.085 78.2045C305.367 78.2045 306.92 76.9581 306.92 75.2642C306.92 73.8963 306.064 73.0334 304.312 72.6051L302.855 72.2472C301.692 71.9595 301.168 71.5696 301.168 70.8153C301.168 69.9716 302.062 69.358 303.264 69.358C304.581 69.358 305.124 70.0866 305.386 70.7642L306.741 70.3807ZM309.191 78H310.7V68.1818H309.191V78ZM309.958 66.5455C310.546 66.5455 311.032 66.0852 311.032 65.5227C311.032 64.9602 310.546 64.5 309.958 64.5C309.37 64.5 308.884 64.9602 308.884 65.5227C308.884 66.0852 309.37 66.5455 309.958 66.5455ZM314.971 72.0938C314.971 70.3807 316.032 69.4091 317.477 69.4091C318.877 69.4091 319.727 70.3232 319.727 71.8636V78H321.235V71.7614C321.235 69.2557 319.9 68.054 317.912 68.054C316.429 68.054 315.508 68.7188 315.048 69.7159H314.92V68.1818H313.463V78H314.971V72.0938ZM327.955 81.8864C330.307 81.8864 332.199 80.8125 332.199 78.2812V68.1818H330.742V69.7415H330.589C330.256 69.2301 329.643 68.054 327.725 68.054C325.245 68.054 323.532 70.0227 323.532 73.0398C323.532 76.108 325.322 77.8466 327.699 77.8466C329.617 77.8466 330.231 76.7216 330.563 76.1847H330.691V78.179C330.691 79.8153 329.54 80.5568 327.955 80.5568C326.172 80.5568 325.545 79.6172 325.143 79.0739L323.941 79.9176C324.555 80.9467 325.763 81.8864 327.955 81.8864ZM327.904 76.4915C326.012 76.4915 325.04 75.0597 325.04 73.0142C325.04 71.0199 325.986 69.4091 327.904 69.4091C329.745 69.4091 330.716 70.892 330.716 73.0142C330.716 75.1875 329.719 76.4915 327.904 76.4915ZM334.961 64.9091V75.8523C334.961 77.2521 335.677 78.0767 337.108 78.0767C337.543 78.0767 337.971 78 338.233 77.9233L337.927 76.6193C337.78 76.6641 337.645 76.7088 337.287 76.7216C336.623 76.7408 336.469 76.3956 336.469 75.4432V64.9091H334.961ZM343.735 78.2045C345.73 78.2045 347.187 77.2074 347.647 75.7244L346.19 75.3153C345.806 76.3381 344.918 76.8494 343.735 76.8494C341.965 76.8494 340.744 75.7053 340.674 73.6023H347.801V72.9631C347.801 69.3068 345.627 68.054 343.582 68.054C340.923 68.054 339.159 70.1506 339.159 73.1676C339.159 76.1847 340.897 78.2045 343.735 78.2045ZM340.674 72.2983C340.776 70.7706 341.856 69.4091 343.582 69.4091C345.218 69.4091 346.267 70.6364 346.267 72.2983H340.674ZM355.158 81.6818H356.667V76.4915H356.794C357.127 77.0284 357.766 78.2045 359.658 78.2045C362.113 78.2045 363.826 76.2358 363.826 73.1165C363.826 70.0227 362.113 68.054 359.632 68.054C357.715 68.054 357.127 69.2301 356.794 69.7415H356.615V68.1818H355.158V81.6818ZM356.641 73.0909C356.641 70.892 357.613 69.4091 359.453 69.4091C361.371 69.4091 362.317 71.0199 362.317 73.0909C362.317 75.1875 361.346 76.8494 359.453 76.8494C357.638 76.8494 356.641 75.3153 356.641 73.0909ZM366.127 78H367.635V68.1818H366.127V78ZM366.894 66.5455C367.482 66.5455 367.968 66.0852 367.968 65.5227C367.968 64.9602 367.482 64.5 366.894 64.5C366.306 64.5 365.82 64.9602 365.82 65.5227C365.82 66.0852 366.306 66.5455 366.894 66.5455ZM374.515 78.2045C376.509 78.2045 377.966 77.2074 378.427 75.7244L376.969 75.3153C376.586 76.3381 375.697 76.8494 374.515 76.8494C372.744 76.8494 371.523 75.7053 371.453 73.6023H378.58V72.9631C378.58 69.3068 376.407 68.054 374.361 68.054C371.702 68.054 369.938 70.1506 369.938 73.1676C369.938 76.1847 371.677 78.2045 374.515 78.2045ZM371.453 72.2983C371.555 70.7706 372.635 69.4091 374.361 69.4091C375.998 69.4091 377.046 70.6364 377.046 72.2983H371.453ZM384.863 78.2045C387.037 78.2045 388.469 76.875 388.724 75.1364H387.216C386.934 76.2102 386.04 76.8494 384.863 76.8494C383.074 76.8494 381.923 75.3665 381.923 73.0909C381.923 70.8665 383.099 69.4091 384.863 69.4091C386.193 69.4091 386.986 70.2273 387.216 71.1222H388.724C388.469 69.2812 386.909 68.054 384.838 68.054C382.179 68.054 380.415 70.1506 380.415 73.142C380.415 76.0824 382.102 78.2045 384.863 78.2045ZM395.046 78.2045C397.04 78.2045 398.498 77.2074 398.958 75.7244L397.501 75.3153C397.117 76.3381 396.229 76.8494 395.046 76.8494C393.275 76.8494 392.055 75.7053 391.984 73.6023H399.111V72.9631C399.111 69.3068 396.938 68.054 394.893 68.054C392.233 68.054 390.469 70.1506 390.469 73.1676C390.469 76.1847 392.208 78.2045 395.046 78.2045ZM391.984 72.2983C392.086 70.7706 393.167 69.4091 394.893 69.4091C396.529 69.4091 397.577 70.6364 397.577 72.2983H391.984ZM408.361 70.3807C407.888 68.9872 406.827 68.054 404.883 68.054C402.812 68.054 401.278 69.2301 401.278 70.892C401.278 72.2472 402.084 73.1548 403.886 73.5767L405.523 73.9602C406.513 74.1903 406.98 74.6634 406.98 75.3409C406.98 76.1847 406.085 76.875 404.679 76.875C403.445 76.875 402.672 76.3445 402.403 75.2898L400.971 75.6477C401.323 77.3161 402.697 78.2045 404.704 78.2045C406.986 78.2045 408.54 76.9581 408.54 75.2642C408.54 73.8963 407.683 73.0334 405.932 72.6051L404.474 72.2472C403.311 71.9595 402.787 71.5696 402.787 70.8153C402.787 69.9716 403.682 69.358 404.883 69.358C406.2 69.358 406.743 70.0866 407.006 70.7642L408.361 70.3807ZM419.862 78.2045C422.521 78.2045 424.31 76.1847 424.31 73.142C424.31 70.0739 422.521 68.054 419.862 68.054C417.202 68.054 415.413 70.0739 415.413 73.142C415.413 76.1847 417.202 78.2045 419.862 78.2045ZM419.862 76.8494C417.842 76.8494 416.921 75.1108 416.921 73.142C416.921 71.1733 417.842 69.4091 419.862 69.4091C421.881 69.4091 422.802 71.1733 422.802 73.142C422.802 75.1108 421.881 76.8494 419.862 76.8494ZM430.985 68.1818H428.786V67.1847C428.786 66.2131 429.195 65.7017 430.193 65.7017C430.627 65.7017 430.883 65.804 431.036 65.8551L431.471 64.5511C431.241 64.4489 430.781 64.2955 430.039 64.2955C428.633 64.2955 427.278 65.1392 427.278 66.8267V68.1818H425.693V69.4602H427.278V78H428.786V69.4602H430.985V68.1818ZM439.67 72.0938C439.67 70.3807 440.763 69.4091 442.253 69.4091C443.672 69.4091 444.528 70.304 444.528 71.8636V78H446.037V71.7614C446.037 69.2365 444.695 68.054 442.688 68.054C441.141 68.054 440.259 68.6996 439.798 69.7159H439.67V64.9091H438.162V78H439.67V72.0938ZM452.504 78.2045C454.396 78.2045 455.035 77.0284 455.368 76.4915H455.547V78H457.004V68.1818H455.496V69.7415H455.368C455.035 69.2301 454.447 68.054 452.53 68.054C450.05 68.054 448.336 70.0227 448.336 73.1165C448.336 76.2358 450.05 78.2045 452.504 78.2045ZM452.709 76.8494C450.817 76.8494 449.845 75.1875 449.845 73.0909C449.845 71.0199 450.791 69.4091 452.709 69.4091C454.55 69.4091 455.521 70.892 455.521 73.0909C455.521 75.3153 454.524 76.8494 452.709 76.8494ZM459.976 78H461.485V71.7869C461.485 70.4638 462.533 69.4858 463.965 69.4858C464.342 69.4858 464.623 69.5561 464.834 69.6648L465.346 68.3864C465.039 68.169 464.636 68.0284 464.093 68.0284C462.904 68.0284 461.888 68.6932 461.536 69.6648H461.434V68.1818H459.976V78ZM470.293 78.2045C472.185 78.2045 472.824 77.0284 473.157 76.4915H473.336V78H474.793V64.9091H473.285V69.7415H473.157C472.824 69.2301 472.236 68.054 470.319 68.054C467.839 68.054 466.126 70.0227 466.126 73.1165C466.126 76.2358 467.839 78.2045 470.293 78.2045ZM470.498 76.8494C468.606 76.8494 467.634 75.1875 467.634 73.0909C467.634 71.0199 468.58 69.4091 470.498 69.4091C472.339 69.4091 473.31 70.892 473.31 73.0909C473.31 75.3153 472.313 76.8494 470.498 76.8494ZM479.99 78H481.473L483.621 70.4574H483.774L485.922 78H487.405L490.396 68.1818H488.811L486.689 75.6733H486.586L484.515 68.1818H482.905L480.808 75.6989H480.706L478.584 68.1818H476.998L479.99 78ZM495.764 78.2045C497.656 78.2045 498.295 77.0284 498.627 76.4915H498.806V78H500.264V68.1818H498.755V69.7415H498.627C498.295 69.2301 497.707 68.054 495.789 68.054C493.309 68.054 491.596 70.0227 491.596 73.1165C491.596 76.2358 493.309 78.2045 495.764 78.2045ZM495.968 76.8494C494.076 76.8494 493.105 75.1875 493.105 73.0909C493.105 71.0199 494.051 69.4091 495.968 69.4091C497.809 69.4091 498.781 70.892 498.781 73.0909C498.781 75.3153 497.784 76.8494 495.968 76.8494ZM503.236 78H504.745V71.7869C504.745 70.4638 505.793 69.4858 507.225 69.4858C507.602 69.4858 507.883 69.5561 508.094 69.6648L508.605 68.3864C508.299 68.169 507.896 68.0284 507.353 68.0284C506.164 68.0284 505.147 68.6932 504.796 69.6648H504.694V68.1818H503.236V78ZM513.962 78.2045C515.956 78.2045 517.414 77.2074 517.874 75.7244L516.417 75.3153C516.033 76.3381 515.145 76.8494 513.962 76.8494C512.191 76.8494 510.971 75.7053 510.9 73.6023H518.027V72.9631C518.027 69.3068 515.854 68.054 513.809 68.054C511.15 68.054 509.385 70.1506 509.385 73.1676C509.385 76.1847 511.124 78.2045 513.962 78.2045ZM510.9 72.2983C511.002 70.7706 512.083 69.4091 513.809 69.4091C515.445 69.4091 516.493 70.6364 516.493 72.2983H510.9ZM521.422 78.1023C522.054 78.1023 522.572 77.5845 522.572 76.9517C522.572 76.3189 522.054 75.8011 521.422 75.8011C520.789 75.8011 520.271 76.3189 520.271 76.9517C520.271 77.5845 520.789 78.1023 521.422 78.1023ZM541.592 71.4545C541.592 67.3125 539.163 64.7301 535.813 64.7301C532.464 64.7301 530.035 67.3125 530.035 71.4545C530.035 75.5966 532.464 78.179 535.813 78.179C539.163 78.179 541.592 75.5966 541.592 71.4545ZM540.058 71.4545C540.058 74.8551 538.191 76.696 535.813 76.696C533.435 76.696 531.569 74.8551 531.569 71.4545C531.569 68.054 533.435 66.2131 535.813 66.2131C538.191 66.2131 540.058 68.054 540.058 71.4545ZM550.24 73.9858C550.24 75.8267 548.834 76.6705 547.709 76.6705C546.456 76.6705 545.561 75.75 545.561 74.3182V68.1818H544.053V74.4205C544.053 76.9261 545.382 78.1278 547.223 78.1278C548.706 78.1278 549.678 77.3352 550.138 76.3381H550.24V78H551.749V68.1818H550.24V73.9858ZM554.512 78H556.02V71.7869C556.02 70.4638 557.068 69.4858 558.5 69.4858C558.877 69.4858 559.159 69.5561 559.369 69.6648L559.881 68.3864C559.574 68.169 559.171 68.0284 558.628 68.0284C557.439 68.0284 556.423 68.6932 556.071 69.6648H555.969V68.1818H554.512V78ZM5.49716 110.205C7.49148 110.205 8.94886 109.207 9.40909 107.724L7.9517 107.315C7.56818 108.338 6.67969 108.849 5.49716 108.849C3.72656 108.849 2.50568 107.705 2.43537 105.602H9.5625V104.963C9.5625 101.307 7.3892 100.054 5.34375 100.054C2.68466 100.054 0.920455 102.151 0.920455 105.168C0.920455 108.185 2.65909 110.205 5.49716 110.205ZM2.43537 104.298C2.53764 102.771 3.6179 101.409 5.34375 101.409C6.98011 101.409 8.02841 102.636 8.02841 104.298H2.43537ZM13.3658 104.094C13.3658 102.381 14.4268 101.409 15.8714 101.409C17.2713 101.409 18.1214 102.323 18.1214 103.864V110H19.63V103.761C19.63 101.256 18.294 100.054 16.3061 100.054C14.8232 100.054 13.9027 100.719 13.4425 101.716H13.3146V100.182H11.8572V110H13.3658V104.094ZM26.6564 100.182H24.5598V97.8295H23.0513V100.182H21.5684V101.46H23.0513V107.597C23.0513 109.31 24.432 110.128 25.7104 110.128C26.2729 110.128 26.6309 110.026 26.8354 109.949L26.5286 108.594C26.4007 108.619 26.1962 108.67 25.8638 108.67C25.199 108.67 24.5598 108.466 24.5598 107.188V101.46H26.6564V100.182ZM28.9256 110H30.4341V100.182H28.9256V110ZM29.6926 98.5455C30.2807 98.5455 30.7665 98.0852 30.7665 97.5227C30.7665 96.9602 30.2807 96.5 29.6926 96.5C29.1046 96.5 28.6188 96.9602 28.6188 97.5227C28.6188 98.0852 29.1046 98.5455 29.6926 98.5455ZM33.1971 110H34.7056V103.787C34.7056 102.464 35.7539 101.486 37.1857 101.486C37.5629 101.486 37.8441 101.556 38.055 101.665L38.5664 100.386C38.2596 100.169 37.8569 100.028 37.3136 100.028C36.1246 100.028 35.1083 100.693 34.7567 101.665H34.6545V100.182H33.1971V110ZM43.9229 110.205C45.9173 110.205 47.3746 109.207 47.8349 107.724L46.3775 107.315C45.994 108.338 45.1055 108.849 43.9229 108.849C42.1523 108.849 40.9315 107.705 40.8612 105.602H47.9883V104.963C47.9883 101.307 45.815 100.054 43.7695 100.054C41.1104 100.054 39.3462 102.151 39.3462 105.168C39.3462 108.185 41.0849 110.205 43.9229 110.205ZM40.8612 104.298C40.9634 102.771 42.0437 101.409 43.7695 101.409C45.4059 101.409 46.4542 102.636 46.4542 104.298H40.8612ZM55.3455 110H56.854V100.182H55.3455V110ZM56.1126 98.5455C56.7006 98.5455 57.1864 98.0852 57.1864 97.5227C57.1864 96.9602 56.7006 96.5 56.1126 96.5C55.5245 96.5 55.0387 96.9602 55.0387 97.5227C55.0387 98.0852 55.5245 98.5455 56.1126 98.5455ZM61.1255 104.094C61.1255 102.381 62.1866 101.409 63.6312 101.409C65.0311 101.409 65.8812 102.323 65.8812 103.864V110H67.3897V103.761C67.3897 101.256 66.0538 100.054 64.0659 100.054C62.5829 100.054 61.6625 100.719 61.2022 101.716H61.0744V100.182H59.617V110H61.1255V104.094ZM74.5185 100.182H72.3196V99.1847C72.3196 98.2131 72.7287 97.7017 73.7259 97.7017C74.1605 97.7017 74.4162 97.804 74.5696 97.8551L75.0043 96.5511C74.7741 96.4489 74.3139 96.2955 73.5724 96.2955C72.1662 96.2955 70.8111 97.1392 70.8111 98.8267V100.182H69.2259V101.46H70.8111V110H72.3196V101.46H74.5185V100.182ZM76.6326 110H78.1412V103.787C78.1412 102.464 79.1895 101.486 80.6213 101.486C80.9984 101.486 81.2797 101.556 81.4906 101.665L82.002 100.386C81.6951 100.169 81.2924 100.028 80.7491 100.028C79.5602 100.028 78.5439 100.693 78.1923 101.665H78.09V100.182H76.6326V110ZM86.9494 110.205C88.8414 110.205 89.4806 109.028 89.813 108.491H89.992V110H91.4494V100.182H89.9409V101.741H89.813C89.4806 101.23 88.8926 100.054 86.975 100.054C84.4949 100.054 82.7818 102.023 82.7818 105.116C82.7818 108.236 84.4949 110.205 86.9494 110.205ZM87.1539 108.849C85.2619 108.849 84.2903 107.188 84.2903 105.091C84.2903 103.02 85.2363 101.409 87.1539 101.409C88.9949 101.409 89.9664 102.892 89.9664 105.091C89.9664 107.315 88.9693 108.849 87.1539 108.849ZM101.376 102.381C100.903 100.987 99.8422 100.054 97.899 100.054C95.8279 100.054 94.2939 101.23 94.2939 102.892C94.2939 104.247 95.0993 105.155 96.9018 105.577L98.5382 105.96C99.5289 106.19 99.9956 106.663 99.9956 107.341C99.9956 108.185 99.1007 108.875 97.6944 108.875C96.4608 108.875 95.6873 108.344 95.4189 107.29L93.987 107.648C94.3386 109.316 95.7129 110.205 97.72 110.205C100.002 110.205 101.555 108.958 101.555 107.264C101.555 105.896 100.699 105.033 98.9473 104.605L97.4899 104.247C96.3265 103.96 95.8024 103.57 95.8024 102.815C95.8024 101.972 96.6973 101.358 97.899 101.358C99.2157 101.358 99.7591 102.087 100.021 102.764L101.376 102.381ZM108.096 100.182H105.999V97.8295H104.491V100.182H103.008V101.46H104.491V107.597C104.491 109.31 105.871 110.128 107.15 110.128C107.712 110.128 108.07 110.026 108.275 109.949L107.968 108.594C107.84 108.619 107.636 108.67 107.303 108.67C106.638 108.67 105.999 108.466 105.999 107.188V101.46H108.096V100.182ZM110.365 110H111.874V103.787C111.874 102.464 112.922 101.486 114.354 101.486C114.731 101.486 115.012 101.556 115.223 101.665L115.734 100.386C115.428 100.169 115.025 100.028 114.482 100.028C113.293 100.028 112.276 100.693 111.925 101.665H111.822V100.182H110.365V110ZM123.461 105.986C123.461 107.827 122.055 108.67 120.93 108.67C119.677 108.67 118.782 107.75 118.782 106.318V100.182H117.273V106.42C117.273 108.926 118.603 110.128 120.444 110.128C121.927 110.128 122.898 109.335 123.358 108.338H123.461V110H124.969V100.182H123.461V105.986ZM131.721 110.205C133.894 110.205 135.326 108.875 135.582 107.136H134.073C133.792 108.21 132.897 108.849 131.721 108.849C129.931 108.849 128.781 107.366 128.781 105.091C128.781 102.866 129.957 101.409 131.721 101.409C133.05 101.409 133.843 102.227 134.073 103.122H135.582C135.326 101.281 133.766 100.054 131.695 100.054C129.036 100.054 127.272 102.151 127.272 105.142C127.272 108.082 128.96 110.205 131.721 110.205ZM142.057 100.182H139.96V97.8295H138.452V100.182H136.969V101.46H138.452V107.597C138.452 109.31 139.832 110.128 141.111 110.128C141.673 110.128 142.031 110.026 142.236 109.949L141.929 108.594C141.801 108.619 141.597 108.67 141.264 108.67C140.599 108.67 139.96 108.466 139.96 107.188V101.46H142.057V100.182ZM150.513 105.986C150.513 107.827 149.107 108.67 147.982 108.67C146.729 108.67 145.835 107.75 145.835 106.318V100.182H144.326V106.42C144.326 108.926 145.656 110.128 147.496 110.128C148.979 110.128 149.951 109.335 150.411 108.338H150.513V110H152.022V100.182H150.513V105.986ZM154.785 110H156.294V103.787C156.294 102.464 157.342 101.486 158.774 101.486C159.151 101.486 159.432 101.556 159.643 101.665L160.154 100.386C159.847 100.169 159.445 100.028 158.901 100.028C157.713 100.028 156.696 100.693 156.345 101.665H156.242V100.182H154.785V110ZM165.511 110.205C167.505 110.205 168.963 109.207 169.423 107.724L167.965 107.315C167.582 108.338 166.693 108.849 165.511 108.849C163.74 108.849 162.519 107.705 162.449 105.602H169.576V104.963C169.576 101.307 167.403 100.054 165.357 100.054C162.698 100.054 160.934 102.151 160.934 105.168C160.934 108.185 162.673 110.205 165.511 110.205ZM162.449 104.298C162.551 102.771 163.632 101.409 165.357 101.409C166.994 101.409 168.042 102.636 168.042 104.298H162.449ZM176.933 110H178.442V100.182H176.933V110ZM177.7 98.5455C178.289 98.5455 178.774 98.0852 178.774 97.5227C178.774 96.9602 178.289 96.5 177.7 96.5C177.112 96.5 176.627 96.9602 176.627 97.5227C176.627 98.0852 177.112 98.5455 177.7 98.5455ZM188.159 102.381C187.686 100.987 186.625 100.054 184.682 100.054C182.611 100.054 181.077 101.23 181.077 102.892C181.077 104.247 181.882 105.155 183.685 105.577L185.321 105.96C186.312 106.19 186.779 106.663 186.779 107.341C186.779 108.185 185.884 108.875 184.478 108.875C183.244 108.875 182.471 108.344 182.202 107.29L180.77 107.648C181.122 109.316 182.496 110.205 184.503 110.205C186.785 110.205 188.338 108.958 188.338 107.264C188.338 105.896 187.482 105.033 185.73 104.605L184.273 104.247C183.11 103.96 182.586 103.57 182.586 102.815C182.586 101.972 183.48 101.358 184.682 101.358C185.999 101.358 186.542 102.087 186.804 102.764L188.159 102.381ZM195.876 110H197.334V108.491H197.513C197.845 109.028 198.484 110.205 200.376 110.205C202.831 110.205 204.544 108.236 204.544 105.116C204.544 102.023 202.831 100.054 200.351 100.054C198.433 100.054 197.845 101.23 197.513 101.741H197.385V96.9091H195.876V110ZM197.359 105.091C197.359 102.892 198.331 101.409 200.172 101.409C202.089 101.409 203.035 103.02 203.035 105.091C203.035 107.188 202.064 108.849 200.172 108.849C198.356 108.849 197.359 107.315 197.359 105.091ZM213.039 105.986C213.039 107.827 211.633 108.67 210.508 108.67C209.255 108.67 208.36 107.75 208.36 106.318V100.182H206.851V106.42C206.851 108.926 208.181 110.128 210.022 110.128C211.505 110.128 212.476 109.335 212.937 108.338H213.039V110H214.547V100.182H213.039V105.986ZM217.31 110H218.819V100.182H217.31V110ZM218.077 98.5455C218.665 98.5455 219.151 98.0852 219.151 97.5227C219.151 96.9602 218.665 96.5 218.077 96.5C217.489 96.5 217.004 96.9602 217.004 97.5227C217.004 98.0852 217.489 98.5455 218.077 98.5455ZM221.582 96.9091V107.852C221.582 109.252 222.298 110.077 223.73 110.077C224.164 110.077 224.593 110 224.855 109.923L224.548 108.619C224.401 108.664 224.267 108.709 223.909 108.722C223.244 108.741 223.09 108.396 223.09 107.443V96.9091H221.582ZM230.51 100.182H228.413V97.8295H226.905V100.182H225.422V101.46H226.905V107.597C226.905 109.31 228.286 110.128 229.564 110.128C230.126 110.128 230.484 110.026 230.689 109.949L230.382 108.594C230.254 108.619 230.05 108.67 229.717 108.67C229.053 108.67 228.413 108.466 228.413 107.188V101.46H230.51V100.182ZM242.112 100.182H240.015V97.8295H238.506V100.182H237.023V101.46H238.506V107.597C238.506 109.31 239.887 110.128 241.165 110.128C241.728 110.128 242.086 110.026 242.29 109.949L241.984 108.594C241.856 108.619 241.651 108.67 241.319 108.67C240.654 108.67 240.015 108.466 240.015 107.188V101.46H242.112V100.182ZM248.264 110.205C250.923 110.205 252.713 108.185 252.713 105.142C252.713 102.074 250.923 100.054 248.264 100.054C245.605 100.054 243.815 102.074 243.815 105.142C243.815 108.185 245.605 110.205 248.264 110.205ZM248.264 108.849C246.244 108.849 245.324 107.111 245.324 105.142C245.324 103.173 246.244 101.409 248.264 101.409C250.284 101.409 251.204 103.173 251.204 105.142C251.204 107.111 250.284 108.849 248.264 108.849ZM260.282 110H261.74V108.491H261.919C262.251 109.028 262.89 110.205 264.782 110.205C267.237 110.205 268.95 108.236 268.95 105.116C268.95 102.023 267.237 100.054 264.757 100.054C262.839 100.054 262.251 101.23 261.919 101.741H261.791V96.9091H260.282V110ZM261.765 105.091C261.765 102.892 262.737 101.409 264.578 101.409C266.496 101.409 267.442 103.02 267.442 105.091C267.442 107.188 266.47 108.849 264.578 108.849C262.763 108.849 261.765 107.315 261.765 105.091ZM275.374 110.205C277.368 110.205 278.826 109.207 279.286 107.724L277.829 107.315C277.445 108.338 276.557 108.849 275.374 108.849C273.604 108.849 272.383 107.705 272.312 105.602H279.439V104.963C279.439 101.307 277.266 100.054 275.221 100.054C272.562 100.054 270.797 102.151 270.797 105.168C270.797 108.185 272.536 110.205 275.374 110.205ZM272.312 104.298C272.415 102.771 273.495 101.409 275.221 101.409C276.857 101.409 277.905 102.636 277.905 104.298H272.312ZM286.797 110H288.305V103.787C288.305 102.464 289.354 101.486 290.785 101.486C291.162 101.486 291.444 101.556 291.655 101.665L292.166 100.386C291.859 100.169 291.456 100.028 290.913 100.028C289.724 100.028 288.708 100.693 288.356 101.665H288.254V100.182H286.797V110ZM297.523 110.205C299.517 110.205 300.974 109.207 301.434 107.724L299.977 107.315C299.594 108.338 298.705 108.849 297.523 108.849C295.752 108.849 294.531 107.705 294.461 105.602H301.588V104.963C301.588 101.307 299.415 100.054 297.369 100.054C294.71 100.054 292.946 102.151 292.946 105.168C292.946 108.185 294.684 110.205 297.523 110.205ZM294.461 104.298C294.563 102.771 295.643 101.409 297.369 101.409C299.006 101.409 300.054 102.636 300.054 104.298H294.461ZM303.883 96.9091V107.852C303.883 109.252 304.599 110.077 306.03 110.077C306.465 110.077 306.893 110 307.155 109.923L306.849 108.619C306.702 108.664 306.567 108.709 306.209 108.722C305.545 108.741 305.391 108.396 305.391 107.443V96.9091H303.883ZM308.541 110H310.049V100.182H308.541V110ZM309.308 98.5455C309.896 98.5455 310.382 98.0852 310.382 97.5227C310.382 96.9602 309.896 96.5 309.308 96.5C308.72 96.5 308.234 96.9602 308.234 97.5227C308.234 98.0852 308.72 98.5455 309.308 98.5455ZM316.52 110.205C318.412 110.205 319.051 109.028 319.383 108.491H319.562V110H321.02V100.182H319.511V101.741H319.383C319.051 101.23 318.463 100.054 316.545 100.054C314.065 100.054 312.352 102.023 312.352 105.116C312.352 108.236 314.065 110.205 316.52 110.205ZM316.724 108.849C314.832 108.849 313.861 107.188 313.861 105.091C313.861 103.02 314.807 101.409 316.724 101.409C318.565 101.409 319.537 102.892 319.537 105.091C319.537 107.315 318.54 108.849 316.724 108.849ZM324.197 110H325.654V108.491H325.833C326.165 109.028 326.805 110.205 328.697 110.205C331.151 110.205 332.864 108.236 332.864 105.116C332.864 102.023 331.151 100.054 328.671 100.054C326.753 100.054 326.165 101.23 325.833 101.741H325.705V96.9091H324.197V110ZM325.68 105.091C325.68 102.892 326.651 101.409 328.492 101.409C330.41 101.409 331.356 103.02 331.356 105.091C331.356 107.188 330.384 108.849 328.492 108.849C326.677 108.849 325.68 107.315 325.68 105.091ZM335.172 96.9091V107.852C335.172 109.252 335.888 110.077 337.319 110.077C337.754 110.077 338.182 110 338.444 109.923L338.138 108.619C337.991 108.664 337.856 108.709 337.498 108.722C336.834 108.741 336.68 108.396 336.68 107.443V96.9091H335.172ZM343.946 110.205C345.941 110.205 347.398 109.207 347.858 107.724L346.401 107.315C346.017 108.338 345.129 108.849 343.946 108.849C342.176 108.849 340.955 107.705 340.885 105.602H348.012V104.963C348.012 101.307 345.838 100.054 343.793 100.054C341.134 100.054 339.37 102.151 339.37 105.168C339.37 108.185 341.108 110.205 343.946 110.205ZM340.885 104.298C340.987 102.771 342.067 101.409 343.793 101.409C345.429 101.409 346.478 102.636 346.478 104.298H340.885ZM352.556 108.21H350.92L350.843 108.926C350.658 110.658 350.294 112.384 350.127 113.196H351.278C351.585 112.327 352.237 110.358 352.454 108.901L352.556 108.21ZM367.368 102.381C366.895 100.987 365.834 100.054 363.891 100.054C361.82 100.054 360.286 101.23 360.286 102.892C360.286 104.247 361.091 105.155 362.894 105.577L364.53 105.96C365.521 106.19 365.988 106.663 365.988 107.341C365.988 108.185 365.093 108.875 363.687 108.875C362.453 108.875 361.68 108.344 361.411 107.29L359.979 107.648C360.331 109.316 361.705 110.205 363.712 110.205C365.994 110.205 367.547 108.958 367.547 107.264C367.547 105.896 366.691 105.033 364.939 104.605L363.482 104.247C362.319 103.96 361.795 103.57 361.795 102.815C361.795 101.972 362.689 101.358 363.891 101.358C365.208 101.358 365.751 102.087 366.013 102.764L367.368 102.381ZM373.935 110.205C375.929 110.205 377.386 109.207 377.847 107.724L376.389 107.315C376.006 108.338 375.117 108.849 373.935 108.849C372.164 108.849 370.943 107.705 370.873 105.602H378V104.963C378 101.307 375.827 100.054 373.781 100.054C371.122 100.054 369.358 102.151 369.358 105.168C369.358 108.185 371.097 110.205 373.935 110.205ZM370.873 104.298C370.975 102.771 372.055 101.409 373.781 101.409C375.418 101.409 376.466 102.636 376.466 104.298H370.873ZM384.283 110.205C386.457 110.205 387.888 108.875 388.144 107.136H386.636C386.354 108.21 385.46 108.849 384.283 108.849C382.494 108.849 381.343 107.366 381.343 105.091C381.343 102.866 382.519 101.409 384.283 101.409C385.613 101.409 386.406 102.227 386.636 103.122H388.144C387.888 101.281 386.329 100.054 384.258 100.054C381.599 100.054 379.835 102.151 379.835 105.142C379.835 108.082 381.522 110.205 384.283 110.205ZM396.537 105.986C396.537 107.827 395.131 108.67 394.006 108.67C392.753 108.67 391.858 107.75 391.858 106.318V100.182H390.349V106.42C390.349 108.926 391.679 110.128 393.52 110.128C395.003 110.128 395.974 109.335 396.435 108.338H396.537V110H398.045V100.182H396.537V105.986ZM400.808 110H402.317V103.787C402.317 102.464 403.365 101.486 404.797 101.486C405.174 101.486 405.455 101.556 405.666 101.665L406.178 100.386C405.871 100.169 405.468 100.028 404.925 100.028C403.736 100.028 402.72 100.693 402.368 101.665H402.266V100.182H400.808V110ZM411.534 110.205C413.529 110.205 414.986 109.207 415.446 107.724L413.989 107.315C413.605 108.338 412.717 108.849 411.534 108.849C409.764 108.849 408.543 107.705 408.472 105.602H415.6V104.963C415.6 101.307 413.426 100.054 411.381 100.054C408.722 100.054 406.958 102.151 406.958 105.168C406.958 108.185 408.696 110.205 411.534 110.205ZM408.472 104.298C408.575 102.771 409.655 101.409 411.381 101.409C413.017 101.409 414.066 102.636 414.066 104.298H408.472ZM420.144 108.21H418.508L418.431 108.926C418.246 110.658 417.882 112.384 417.715 113.196H418.866C419.173 112.327 419.825 110.358 420.042 108.901L420.144 108.21ZM431.709 110.205C433.601 110.205 434.24 109.028 434.573 108.491H434.752V110H436.209V100.182H434.701V101.741H434.573C434.24 101.23 433.652 100.054 431.735 100.054C429.255 100.054 427.542 102.023 427.542 105.116C427.542 108.236 429.255 110.205 431.709 110.205ZM431.914 108.849C430.022 108.849 429.05 107.188 429.05 105.091C429.05 103.02 429.996 101.409 431.914 101.409C433.755 101.409 434.726 102.892 434.726 105.091C434.726 107.315 433.729 108.849 431.914 108.849ZM440.69 104.094C440.69 102.381 441.751 101.409 443.196 101.409C444.596 101.409 445.446 102.323 445.446 103.864V110H446.954V103.761C446.954 101.256 445.618 100.054 443.63 100.054C442.147 100.054 441.227 100.719 440.767 101.716H440.639V100.182H439.181V110H440.69V104.094ZM453.418 110.205C455.31 110.205 455.949 109.028 456.282 108.491H456.461V110H457.918V96.9091H456.41V101.741H456.282C455.949 101.23 455.361 100.054 453.444 100.054C450.964 100.054 449.251 102.023 449.251 105.116C449.251 108.236 450.964 110.205 453.418 110.205ZM453.623 108.849C451.731 108.849 450.759 107.188 450.759 105.091C450.759 103.02 451.705 101.409 453.623 101.409C455.464 101.409 456.435 102.892 456.435 105.091C456.435 107.315 455.438 108.849 453.623 108.849ZM472.907 102.381C472.434 100.987 471.373 100.054 469.43 100.054C467.359 100.054 465.825 101.23 465.825 102.892C465.825 104.247 466.631 105.155 468.433 105.577L470.069 105.96C471.06 106.19 471.527 106.663 471.527 107.341C471.527 108.185 470.632 108.875 469.226 108.875C467.992 108.875 467.219 108.344 466.95 107.29L465.518 107.648C465.87 109.316 467.244 110.205 469.251 110.205C471.533 110.205 473.086 108.958 473.086 107.264C473.086 105.896 472.23 105.033 470.479 104.605L469.021 104.247C467.858 103.96 467.334 103.57 467.334 102.815C467.334 101.972 468.229 101.358 469.43 101.358C470.747 101.358 471.29 102.087 471.552 102.764L472.907 102.381ZM479.346 110.205C481.519 110.205 482.951 108.875 483.207 107.136H481.698C481.417 108.21 480.522 108.849 479.346 108.849C477.556 108.849 476.406 107.366 476.406 105.091C476.406 102.866 477.582 101.409 479.346 101.409C480.675 101.409 481.468 102.227 481.698 103.122H483.207C482.951 101.281 481.391 100.054 479.32 100.054C476.661 100.054 474.897 102.151 474.897 105.142C474.897 108.082 476.585 110.205 479.346 110.205ZM489.119 110.205C491.011 110.205 491.651 109.028 491.983 108.491H492.162V110H493.619V100.182H492.111V101.741H491.983C491.651 101.23 491.062 100.054 489.145 100.054C486.665 100.054 484.952 102.023 484.952 105.116C484.952 108.236 486.665 110.205 489.119 110.205ZM489.324 108.849C487.432 108.849 486.46 107.188 486.46 105.091C486.46 103.02 487.406 101.409 489.324 101.409C491.165 101.409 492.136 102.892 492.136 105.091C492.136 107.315 491.139 108.849 489.324 108.849ZM496.592 96.9091V107.852C496.592 109.252 497.308 110.077 498.739 110.077C499.174 110.077 499.602 110 499.864 109.923L499.558 108.619C499.411 108.664 499.276 108.709 498.918 108.722C498.254 108.741 498.1 108.396 498.1 107.443V96.9091H496.592ZM504.957 110.205C506.849 110.205 507.488 109.028 507.821 108.491H508V110H509.457V100.182H507.949V101.741H507.821C507.488 101.23 506.9 100.054 504.983 100.054C502.503 100.054 500.79 102.023 500.79 105.116C500.79 108.236 502.503 110.205 504.957 110.205ZM505.162 108.849C503.27 108.849 502.298 107.188 502.298 105.091C502.298 103.02 503.244 101.409 505.162 101.409C507.003 101.409 507.974 102.892 507.974 105.091C507.974 107.315 506.977 108.849 505.162 108.849ZM512.634 110H514.091V108.491H514.27C514.603 109.028 515.242 110.205 517.134 110.205C519.589 110.205 521.302 108.236 521.302 105.116C521.302 102.023 519.589 100.054 517.108 100.054C515.191 100.054 514.603 101.23 514.27 101.741H514.143V96.9091H512.634V110ZM514.117 105.091C514.117 102.892 515.089 101.409 516.93 101.409C518.847 101.409 519.793 103.02 519.793 105.091C519.793 107.188 518.822 108.849 516.93 108.849C515.114 108.849 514.117 107.315 514.117 105.091ZM523.609 96.9091V107.852C523.609 109.252 524.325 110.077 525.757 110.077C526.192 110.077 526.62 110 526.882 109.923L526.575 108.619C526.428 108.664 526.294 108.709 525.936 108.722C525.271 108.741 525.118 108.396 525.118 107.443V96.9091H523.609ZM532.384 110.205C534.378 110.205 535.836 109.207 536.296 107.724L534.838 107.315C534.455 108.338 533.566 108.849 532.384 108.849C530.613 108.849 529.392 107.705 529.322 105.602H536.449V104.963C536.449 101.307 534.276 100.054 532.23 100.054C529.571 100.054 527.807 102.151 527.807 105.168C527.807 108.185 529.546 110.205 532.384 110.205ZM529.322 104.298C529.424 102.771 530.505 101.409 532.23 101.409C533.867 101.409 534.915 102.636 534.915 104.298H529.322ZM539.843 110.102C540.476 110.102 540.994 109.585 540.994 108.952C540.994 108.319 540.476 107.801 539.843 107.801C539.211 107.801 538.693 108.319 538.693 108.952C538.693 109.585 539.211 110.102 539.843 110.102Z" fill="#18191F"/>
</svg>
